<?xml version="1.0" encoding="UTF-8"?>
<svg version="1.1" xmlns="http://www.w3.org/2000/svg" width="1500" height="1320">
<path d="M0 0 C51.84788281 0.78959622 104.52861323 8.35895765 154 24 C154.84014648 24.26361328 155.68029297 24.52722656 156.54589844 24.79882812 C204.04466766 39.93017257 253.80939771 67.36124742 277.9375 112.94140625 C297.90003686 151.83297176 297.49277561 192.57877925 284.5546875 233.7421875 C267.34477737 285.59657491 232.62637385 330.79765295 195.671875 370.21044922 C193.85575581 372.1543969 192.05283144 374.1101326 190.25 376.06640625 C181.82613712 385.16505153 173.10757004 393.81003697 163.96679688 402.18603516 C161.94651759 404.0493265 159.94768421 405.93344226 157.953125 407.82421875 C157.30875488 408.43233398 156.66438477 409.04044922 156.00048828 409.66699219 C154.77704338 410.82195476 153.55651881 411.98002101 152.33935547 413.14160156 C148.22560387 417 148.22560387 417 146 417 C146 417.66 146 418.32 146 419 C144.53309441 420.3327188 142.99677499 421.58913869 141.4375 422.8125 C136.72461981 426.57554426 132.15482713 430.4567075 127.625 434.4375 C121.53171675 439.7595398 115.27671239 444.74434159 108.81640625 449.61767578 C106.02234177 451.74401894 103.25965799 453.91010981 100.49365234 456.07275391 C86.83787308 466.74467456 73.05877609 477.06831327 58.70703125 486.7890625 C55.03149727 489.2833621 51.40111994 491.83282337 47.78857422 494.41723633 C22.54568133 512.46817207 -4.02560254 528.73543216 -30.90527344 544.21435547 C-34.09041648 546.05216994 -37.26840177 547.90190194 -40.4453125 549.75390625 C-53.79634157 557.52206773 -67.25649132 565.04269624 -80.87792969 572.32568359 C-84.12505132 574.06706303 -87.36379788 575.82332135 -90.6015625 577.58203125 C-116.12517357 591.41020677 -142.049091 604.35173071 -168.46630859 616.38916016 C-171.46342367 617.75540067 -174.45713025 619.12879333 -177.44966125 620.5050354 C-223.56808066 641.69255539 -270.743035 660.185348 -318.50682068 677.30706787 C-323.56647683 679.12113892 -328.61704478 680.95684787 -333.66015625 682.81640625 C-398.02334368 706.38182441 -464.99516794 725.19960209 -532.1484375 738.94140625 C-533.32152466 739.1839212 -534.49461182 739.42643616 -535.70324707 739.67630005 C-541.37768572 740.84816932 -547.05477258 741.9928832 -552.74511719 743.08496094 C-554.79121896 743.49964903 -556.83712808 743.91528918 -558.8828125 744.33203125 C-559.80653656 744.49836563 -560.73026062 744.66470001 -561.68197632 744.83607483 C-568.30088906 746.22569253 -571.71556475 748.83808804 -576 754 C-576.64678711 754.71317383 -577.29357422 755.42634766 -577.95996094 756.16113281 C-578.46301758 756.75249023 -578.96607422 757.34384766 -579.484375 757.953125 C-582.96810704 761.98835085 -586.5880824 765.87666083 -590.25 769.75 C-595.65236904 775.48814337 -601.01259914 781.25935409 -606.328125 787.078125 C-609.18877655 790.20643985 -612.0610975 793.3236772 -614.9375 796.4375 C-615.68616333 797.24803833 -615.68616333 797.24803833 -616.44995117 798.07495117 C-617.46120612 799.16964892 -618.47251812 800.26429396 -619.48388672 801.35888672 C-621.49046659 803.53090442 -623.49613692 805.70376073 -625.50170898 807.87670898 C-626.50244158 808.96093108 -627.50325569 810.04507794 -628.50415039 811.12915039 C-630.98061326 813.81148255 -633.45615272 816.49465476 -635.9296875 819.1796875 C-641.32715693 825.03628707 -646.74576739 830.87198592 -652.1875 836.6875 C-656.71498739 841.52731204 -661.18520954 846.40984414 -665.6015625 851.3515625 C-669.25579086 855.38668763 -672.98264424 859.35321782 -676.70263672 863.32763672 C-681.26462323 868.20415826 -685.78697078 873.11473963 -690.29296875 878.04296875 C-693.16490669 881.1833317 -696.05008448 884.31137033 -698.9375 887.4375 C-699.43580322 887.97705322 -699.93410645 888.51660645 -700.44750977 889.07250977 C-702.47157784 891.26375365 -704.49605171 893.45462243 -706.52050781 895.64550781 C-711.85697495 901.42124684 -717.18935718 907.20049542 -722.5 913 C-726.79794611 917.69358589 -731.10422786 922.37936499 -735.42944336 927.04785156 C-738.07786961 929.90789331 -740.70996594 932.78090539 -743.3203125 935.67578125 C-743.86308838 936.27398682 -744.40586426 936.87219238 -744.96508789 937.48852539 C-746.00794887 938.6384936 -747.04641476 939.79246728 -748.07983398 940.95092773 C-750.36471729 943.46143984 -751.72256364 944.90752121 -755 946 C-752.8375386 937.90649236 -749.79747405 930.20993987 -746.64944458 922.4637146 C-745.07349851 918.58499333 -743.51281417 914.70011862 -741.94921875 910.81640625 C-741.62344345 910.00847122 -741.29766815 909.20053619 -740.96202087 908.36811829 C-737.4523975 899.65823295 -734.00441552 890.92431427 -730.5625 882.1875 C-729.9331402 880.59105076 -729.30374549 878.99461528 -728.67431641 877.39819336 C-727.4099778 874.19105233 -726.14602674 870.98375891 -724.88232422 867.77636719 C-722.10731312 860.73380556 -719.32798969 853.69294623 -716.54855347 846.65213013 C-715.62672959 844.31688155 -714.7050781 841.981565 -713.78344727 839.64624023 C-710.36714769 830.99055765 -706.94705307 822.3363853 -703.5234375 813.68359375 C-702.76220644 811.75935896 -702.00097597 809.83512393 -701.23974609 807.91088867 C-699.79274879 804.25326395 -698.34506581 800.59591168 -696.89697266 796.9387207 C-692.55790503 785.97456835 -688.26078096 774.99481211 -684 764 C-684.76006348 764.12697266 -685.52012695 764.25394531 -686.30322266 764.38476562 C-700.36208295 766.65047602 -714.53241115 767.73352748 -728.7210083 768.82427979 C-730.18318453 768.93701996 -731.64523456 769.05141617 -733.1071167 769.16790771 C-782.87133876 773.12555953 -835.14727332 773.95065056 -884.77990723 768.25323486 C-887.12024118 767.98628469 -889.46176638 767.73238914 -891.80371094 767.47998047 C-924.31602972 763.93503859 -956.66136573 758.51268046 -988 749 C-989.18754883 748.64067383 -990.37509766 748.28134766 -991.59863281 747.91113281 C-1040.17415202 732.98329305 -1087.43431278 708.547691 -1116 665 C-1116.84498047 663.73542969 -1116.84498047 663.73542969 -1117.70703125 662.4453125 C-1138.17627724 629.82389563 -1139.62542304 590.25945075 -1131.45849609 553.63623047 C-1127.25537796 535.99720332 -1120.57821234 518.87405113 -1112.01367188 502.90527344 C-1110.95765328 500.92040611 -1109.93753689 498.91985288 -1108.921875 496.9140625 C-1092.99901631 465.734816 -1071.16654848 438.0822468 -1048 412 C-1047.07767578 410.95585938 -1047.07767578 410.95585938 -1046.13671875 409.890625 C-1036.45841777 399.02759791 -1026.46556181 388.42144377 -1016.25 378.0625 C-1015.32703125 377.12535156 -1014.4040625 376.18820312 -1013.453125 375.22265625 C-1011.32315452 373.29279446 -1009.63621184 372.07789036 -1007 371 C-1008.20683121 375.10069871 -1009.82615157 378.67866279 -1011.91894531 382.40209961 C-1031.5687023 417.3764856 -1041.61919551 459.4381257 -1030.96875 498.8125 C-1019.1758886 537.05961807 -990.22054725 563.12751394 -955.79296875 581.55371094 C-895.26880602 612.89506933 -825.05788364 619.28035067 -758 620 C-756.02700928 620.02199463 -756.02700928 620.02199463 -754.01416016 620.04443359 C-689.06988334 620.41098225 -623.50252495 612.15260049 -560 599 C-558.82083008 598.76104004 -557.64166016 598.52208008 -556.42675781 598.27587891 C-548.26117182 596.61873842 -540.12404697 594.84957736 -532 593 C-531.2559491 592.8306897 -530.51189819 592.66137939 -529.74530029 592.48693848 C-474.13440002 579.7970883 -419.16690016 564.064468 -365.5625 544.5 C-364.88255981 544.25221802 -364.20261963 544.00443604 -363.5020752 543.74914551 C-326.76100752 530.32933445 -290.8127378 515.12898553 -255.1875 499 C-254.52865814 498.7023877 -253.86981628 498.40477539 -253.19100952 498.09814453 C-245.23071353 494.49543465 -237.37275415 490.72854775 -229.57087708 486.79425049 C-225.39867886 484.69134061 -221.20363708 482.65988629 -216.95825195 480.70800781 C-206.33037201 475.82065273 -196.12039162 470.25872461 -185.89306641 464.59130859 C-182.95343435 462.97438693 -180.001056 461.38366391 -177.04296875 459.80078125 C-163.48052409 452.54118809 -150.16246483 444.96118621 -137 437 C-135.99243652 436.39317383 -134.98487305 435.78634766 -133.94677734 435.16113281 C-116.96761887 424.91422776 -100.38806362 414.16047877 -84 403 C-83.07960938 402.37351562 -82.15921875 401.74703125 -81.2109375 401.1015625 C-68.1401648 392.16661639 -55.51105733 382.69961327 -43 373 C-42.33774414 372.48840332 -41.67548828 371.97680664 -40.99316406 371.44970703 C-15.43266729 351.83959488 -15.43266729 351.83959488 8.09033203 329.90893555 C9.85333885 328.1466049 11.66548648 326.53250653 13.56640625 324.921875 C18.80189893 320.37338994 23.67096406 315.4749847 28.5625 310.5625 C29.46935547 309.65951172 30.37621094 308.75652344 31.31054688 307.82617188 C35.88552233 303.24456121 40.32889906 298.6108321 44.54467773 293.69604492 C46.39447457 291.54027599 48.32278271 289.46155415 50.25 287.375 C55.83621393 281.17439706 60.92805608 274.62170457 66 268 C66.49435547 267.35724121 66.98871094 266.71448242 67.49804688 266.05224609 C99.25600956 224.65858237 128.19983065 172.97649967 121.22827148 118.88452148 C117.24242329 91.98073482 104.75083465 69.44104942 86 50 C85.11054688 49.03320312 85.11054688 49.03320312 84.203125 48.046875 C73.92977929 37.16323152 60.83607941 29.44185322 48 22 C47.33049316 21.60425781 46.66098633 21.20851563 45.97119141 20.80078125 C33.53543131 13.50795621 20.23541684 8.75920093 6.6628418 4.00219727 C4.34435551 3.12960295 2.18655413 2.15838981 0 1 C0 0.67 0 0.34 0 0 Z " fill="#FFC114" transform="translate(1156,371)"/>
<path d="M0 0 C1.16245323 3.4873597 0.86584092 3.96914189 -0.54443359 7.20385742 C-1.09391411 8.48378319 -1.09391411 8.48378319 -1.65449524 9.78956604 C-2.06499619 10.71881393 -2.47549713 11.64806183 -2.8984375 12.60546875 C-3.31953293 13.57955185 -3.74062836 14.55363495 -4.17448425 15.55723572 C-5.56599309 18.77115968 -6.97063683 21.97917472 -8.375 25.1875 C-9.3473491 27.42840698 -10.31861162 29.66978574 -11.28881836 31.91162109 C-13.25762776 36.4596731 -15.23028751 41.0060239 -17.20556641 45.55126953 C-20.69738831 53.5967513 -24.13214396 61.66600294 -27.552948 69.74188232 C-28.91956348 72.96787317 -30.28885853 76.19272402 -31.65809631 79.41760254 C-32.35559036 81.06037533 -33.05296762 82.70319772 -33.75022888 84.34606934 C-38.09724651 94.58788783 -42.45525549 104.82502937 -46.8125 115.0625 C-47.65764052 117.04833684 -48.50277397 119.03417669 -49.34790039 121.02001953 C-51.04911492 125.01743185 -52.75037331 129.01482549 -54.45166016 133.01220703 C-58.21915459 141.86449536 -61.98606848 150.71703072 -65.75302124 159.56954956 C-67.83532325 164.46304336 -69.91766358 169.35652085 -72 174.25 C-72.83333352 176.20833326 -73.66666685 178.16666659 -74.5 180.125 C-89.5 215.375 -104.5 250.625 -119.5 285.875 C-119.91248489 286.84433975 -120.32496979 287.8136795 -120.74995422 288.81239319 C-121.58343941 290.77108287 -122.41692533 292.72977224 -123.25041199 294.6884613 C-125.33142795 299.57883992 -127.41243124 304.46922393 -129.4934082 309.35961914 C-133.69714572 319.23856433 -137.90110427 329.11741537 -142.10546875 338.99609375 C-146.28353403 348.81303455 -150.46087425 358.63028366 -154.63769531 368.44775391 C-156.16545725 372.03867336 -157.69344957 375.62949461 -159.22167969 379.22021484 C-161.33599795 384.18817406 -163.44959796 389.1564383 -165.5625 394.125 C-166.07802933 395.33724243 -166.07802933 395.33724243 -166.60397339 396.57397461 C-170.59746405 405.96668147 -174.57907732 415.36429225 -178.54296875 424.76953125 C-179.11930054 426.13695969 -179.11930054 426.13695969 -179.70727539 427.53201294 C-180.09439697 428.45054047 -180.48151855 429.36906799 -180.88037109 430.31542969 C-189.20897866 450.07646304 -197.61220662 469.80402977 -206.07080078 489.50976562 C-218.45751139 518.36953915 -230.75396399 547.26824824 -242.97262573 576.19958496 C-243.35298414 577.10018394 -243.73334255 578.00078293 -244.12522697 578.92867279 C-244.41390207 579.61221077 -244.70257717 580.29574875 -245 581 C-244.36630462 581.01851013 -243.73260923 581.03702026 -243.07971096 581.05609131 C-219.54805958 581.76335979 -196.04153835 582.92133905 -172.52901196 584.0877533 C-166.96105426 584.36358646 -161.39298685 584.63718924 -155.82493591 584.91113281 C-146.49999707 585.37025241 -137.17514345 585.8310717 -127.8503418 586.29296875 C-117.10570011 586.82517751 -106.3609307 587.35474546 -95.6160894 587.88290787 C-85.20799181 588.39457034 -74.79998174 588.90799227 -64.39201164 589.42224121 C-59.99090164 589.63967213 -55.58976334 589.85651652 -51.18860054 590.07287598 C-46.00982665 590.32754923 -40.83113199 590.58377946 -35.65249252 590.84117126 C-33.76362004 590.93481379 -31.87472208 591.02794415 -29.98579597 591.12049866 C-19.64619061 591.6274835 -9.3220143 592.20200729 1 593 C-0.44262659 595.99201744 -1.9499667 598.28591918 -4.171875 600.765625 C-4.79513672 601.46236328 -5.41839844 602.15910156 -6.06054688 602.87695312 C-9.09349175 606.19700456 -12.16072314 609.4823631 -15.25 612.75 C-20.65236904 618.48814337 -26.01259914 624.25935409 -31.328125 630.078125 C-35.69865719 634.85759587 -40.0974101 639.61096197 -44.49267578 644.36767578 C-45.97410134 645.97195361 -47.45408992 647.57754366 -48.93359375 649.18359375 C-54.32955118 655.03908715 -59.74702372 660.87332854 -65.1875 666.6875 C-69.71498739 671.52731204 -74.18520954 676.40984414 -78.6015625 681.3515625 C-82.25579086 685.38668763 -85.98264424 689.35321782 -89.70263672 693.32763672 C-94.26462323 698.20415826 -98.78697078 703.11473963 -103.29296875 708.04296875 C-107.67208212 712.83137494 -112.08033323 717.59297075 -116.48388672 722.35888672 C-118.99014104 725.07177586 -121.49500446 727.78594859 -124 730.5 C-124.99999324 731.58333957 -125.99999324 732.66667291 -127 733.75 C-127.7425 734.554375 -127.7425 734.554375 -128.5 735.375 C-133 740.25 -133 740.25 -134.50024414 741.87524414 C-135.49945738 742.95773871 -136.49864362 744.04025821 -137.49780273 745.12280273 C-140.00961835 747.84417508 -142.52191333 750.56510195 -145.03515625 753.28515625 C-149.86630592 758.51475125 -154.6918495 763.74924378 -159.5 769 C-164.81204208 774.80103264 -170.14594334 780.58169117 -175.48388672 786.35888672 C-177.99014104 789.07177586 -180.49500446 791.78594859 -183 794.5 C-183.99999324 795.58333957 -184.99999324 796.66667291 -186 797.75 C-186.7425 798.554375 -186.7425 798.554375 -187.5 799.375 C-228 843.25 -228 843.25 -229.50146484 844.87646484 C-230.49674444 845.95476548 -231.49186288 847.0332149 -232.48681641 848.11181641 C-235.05770555 850.89842092 -237.63173982 853.68201973 -240.2109375 856.4609375 C-240.74074219 857.03263672 -241.27054688 857.60433594 -241.81640625 858.19335938 C-242.81534757 859.27116448 -243.81526006 860.34807077 -244.81640625 861.42382812 C-245.50669922 862.16922852 -245.50669922 862.16922852 -246.2109375 862.9296875 C-246.68055908 863.42710449 -247.15018066 863.92452148 -247.6340332 864.43701172 C-249.03585831 865.97038209 -249.03585831 865.97038209 -250.13745117 867.72314453 C-254.9666721 874.63505601 -262.94765689 876.49258228 -270.5625 879.125 C-272.13073801 879.68383503 -273.69835393 880.24441855 -275.26538086 880.80664062 C-278.53728851 881.97620315 -281.81351093 883.13233852 -285.09375 884.27832031 C-289.76192807 885.91098638 -294.4129454 887.58862877 -299.0625 889.2734375 C-370.41677505 915.01968007 -444.90269807 934.94356916 -520 946 C-519.39040133 941.35892804 -518.13562428 937.40954485 -516.39453125 933.0703125 C-516.12343033 932.38914871 -515.85232941 931.70798492 -515.57301331 931.00617981 C-514.97606404 929.50819627 -514.37638878 928.01129689 -513.77435303 926.51535034 C-512.43029164 923.17515438 -511.09967173 919.82964714 -509.7678833 916.48454285 C-509.03316843 914.63955656 -508.29775457 912.79484851 -507.56170654 910.95039368 C-503.25244549 900.14635335 -499.01172631 889.31551796 -494.76647949 878.48620605 C-484.77652259 853.00870476 -474.70746827 827.56293105 -464.61758423 802.12487793 C-460.9271705 792.81950003 -457.24427184 783.51116715 -453.56784058 774.20025635 C-452.95711885 772.65359542 -452.34622874 771.10700098 -451.73513794 769.56048584 C-451.3114241 768.48809662 -451.3114241 768.48809662 -450.87915039 767.39404297 C-450.63701309 766.78132538 -450.39487579 766.16860779 -450.145401 765.537323 C-446.39915281 756.03635931 -442.70181308 746.51894792 -439 737 C-514.24 736.67 -589.48 736.34 -667 736 C-665.06631091 732.13262183 -662.85834675 729.46303662 -659.9375 726.375 C-658.93840325 725.30245472 -657.93971093 724.22953257 -656.94140625 723.15625 C-656.44398926 722.62386719 -655.94657227 722.09148438 -655.43408203 721.54296875 C-653.38918002 719.34280179 -651.3808327 717.11077825 -649.375 714.875 C-648.64796875 714.06546875 -647.9209375 713.2559375 -647.171875 712.421875 C-646.45515625 711.62265625 -645.7384375 710.8234375 -645 710 C-639.72916984 704.12245558 -634.42768328 698.27500173 -629.08642578 692.46142578 C-625.4701998 688.52207454 -621.89117595 684.55073735 -618.3203125 680.5703125 C-615.68920217 677.65571553 -613.03347525 674.76460776 -610.375 671.875 C-607.3977736 668.63786909 -604.44047034 665.38862144 -601.5625 662.0625 C-597.98197688 657.93244815 -594.26420238 653.9339593 -590.54980469 649.92480469 C-585.98403358 644.99354346 -581.48255338 640.00702032 -577 635 C-571.72971517 629.12197061 -566.42767815 623.27499615 -561.08642578 617.46142578 C-558.20606171 614.32368887 -555.34483753 611.16996182 -552.5 608 C-548.72462783 603.79315673 -544.91019552 599.62325147 -541.0859375 595.4609375 C-538.20577393 592.32332914 -535.34468386 589.16979059 -532.5 586 C-528.72462783 581.79315673 -524.91019552 577.62325147 -521.0859375 573.4609375 C-518.20577393 570.32332914 -515.34468386 567.16979059 -512.5 564 C-508.72462783 559.79315673 -504.91019552 555.62325147 -501.0859375 551.4609375 C-498.20577393 548.32332914 -495.34468386 545.16979059 -492.5 542 C-488.72462783 537.79315673 -484.91019552 533.62325147 -481.0859375 529.4609375 C-478.20577393 526.32332914 -475.34468386 523.16979059 -472.5 520 C-469.18998278 516.3116951 -465.852855 512.64934235 -462.5 509 C-457.63056955 503.69878077 -452.80576976 498.35895189 -448 493 C-442.72916984 487.12245558 -437.42768328 481.27500173 -432.08642578 475.46142578 C-429.20606171 472.32368887 -426.34483753 469.16996182 -423.5 466 C-419.72462783 461.79315673 -415.91019552 457.62325147 -412.0859375 453.4609375 C-408.46992343 449.52170429 -404.89102241 445.5505662 -401.3203125 441.5703125 C-398.68920217 438.65571553 -396.03347525 435.76460776 -393.375 432.875 C-390.3977736 429.63786909 -387.44047034 426.38862144 -384.5625 423.0625 C-380.98062691 418.930891 -377.26162042 414.93070073 -373.54541016 410.92041016 C-369.75112961 406.82306071 -366.00453553 402.68589227 -362.27734375 398.52734375 C-359.70190225 395.66917797 -357.10314236 392.83289739 -354.5 390 C-351.14706883 386.35072829 -347.81001643 382.68830402 -344.5 379 C-338.91080217 372.77430989 -333.24475942 366.61946922 -327.58398438 360.45898438 C-322.12898209 354.52110499 -316.69808111 348.56357609 -311.3125 342.5625 C-308.25709826 339.17678456 -305.17143016 335.8191809 -302.0859375 332.4609375 C-299.20577393 329.32332914 -296.34468386 326.16979059 -293.5 323 C-289.72462783 318.79315673 -285.91019552 314.62325147 -282.0859375 310.4609375 C-279.20577393 307.32332914 -276.34468386 304.16979059 -273.5 301 C-270.18998278 297.3116951 -266.852855 293.64934235 -263.5 290 C-258.63056955 284.69878077 -253.80576976 279.35895189 -249 274 C-243.72916984 268.12245558 -238.42768328 262.27500173 -233.08642578 256.46142578 C-230.20606171 253.32368887 -227.34483753 250.16996182 -224.5 247 C-220.72462783 242.79315673 -216.91019552 238.62325147 -213.0859375 234.4609375 C-210.20577393 231.32332914 -207.34468386 228.16979059 -204.5 225 C-200.72462783 220.79315673 -196.91019552 216.62325147 -193.0859375 212.4609375 C-190.20577393 209.32332914 -187.34468386 206.16979059 -184.5 203 C-180.72462783 198.79315673 -176.91019552 194.62325147 -173.0859375 190.4609375 C-170.20577393 187.32332914 -167.34468386 184.16979059 -164.5 181 C-160.72462783 176.79315673 -156.91019552 172.62325147 -153.0859375 168.4609375 C-150.20577393 165.32332914 -147.34468386 162.16979059 -144.5 159 C-140.72462783 154.79315673 -136.91019552 150.62325147 -133.0859375 146.4609375 C-130.20577393 143.32332914 -127.34468386 140.16979059 -124.5 137 C-120.72462783 132.79315673 -116.91019552 128.62325147 -113.0859375 124.4609375 C-110.20577393 121.32332914 -107.34468386 118.16979059 -104.5 115 C-100.72462783 110.79315673 -96.91019552 106.62325147 -93.0859375 102.4609375 C-90.20577393 99.32332914 -87.34468386 96.16979059 -84.5 93 C-81.18998304 89.31169539 -77.8528804 85.64931879 -74.5 82 C-70.38999693 77.52611632 -66.31116236 73.02567827 -62.25390625 68.50390625 C-59.80549527 65.78392109 -57.34099921 63.07904439 -54.875 60.375 C-52.09187108 57.31868051 -49.33020197 54.25042752 -46.625 51.125 C-43.01952682 46.97530445 -39.28166416 42.95235701 -35.5456543 38.9206543 C-31.74877572 34.82054661 -28.00002132 30.68020395 -24.26953125 26.51953125 C-20.36131324 22.18080386 -16.40619859 17.88502469 -12.45556641 13.58496094 C-9.90580795 10.80853828 -7.35936495 8.02907666 -4.8125 5.25 C-3.88152451 4.23436208 -2.95053628 3.21873584 -2.01953125 2.203125 C-1.35308594 1.47609375 -0.68664063 0.7490625 0 0 Z " fill="#FFC114" transform="translate(1068,0)"/>
<path d="M0 0 C-4.23038908 4.93048868 -8.58269544 9.73746483 -13 14.5 C-16.21161162 17.9628568 -19.41102824 21.42648365 -22.5 25 C-26.05817847 29.11360146 -29.7584212 33.09095275 -33.45483398 37.07983398 C-37.24901264 41.17712069 -40.99554128 45.31419343 -44.72265625 49.47265625 C-47.29809775 52.33082203 -49.89685764 55.16710261 -52.5 58 C-55.85293117 61.64927171 -59.18998357 65.31169598 -62.5 69 C-65.81001722 72.6883049 -69.147145 76.35065765 -72.5 80 C-77.36943045 85.30121923 -82.19423024 90.64104811 -87 96 C-92.27083016 101.87754442 -97.57231672 107.72499827 -102.91357422 113.53857422 C-105.79393829 116.67631113 -108.65516247 119.83003818 -111.5 123 C-114.81001722 126.6883049 -118.147145 130.35065765 -121.5 134 C-124.89219324 137.69299043 -128.27109943 141.39714536 -131.625 145.125 C-132.72134766 146.3315625 -132.72134766 146.3315625 -133.83984375 147.5625 C-135.28727908 149.19577242 -136.69648184 150.86369014 -138.06640625 152.5625 C-143.50556924 159.13356984 -149.49024922 162.87840863 -156.90820312 166.84814453 C-198.1714745 189.56991325 -236.83027926 218.84539186 -272 250 C-272.69319336 250.60908203 -273.38638672 251.21816406 -274.10058594 251.84570312 C-280.74462971 257.74344497 -287.08917657 263.90296499 -293.3684082 270.18310547 C-295.05857346 271.87107855 -296.75660834 273.55085724 -298.45507812 275.23046875 C-305.09065057 281.83184625 -311.20078813 288.63817949 -317 296 C-318.02382079 297.24379371 -319.05074587 298.48504473 -320.08203125 299.72265625 C-345.64740055 330.82604657 -368.14613882 369.99822406 -364.52734375 411.62109375 C-362.9921837 425.72788637 -357.64745845 439.38546042 -349.24609375 450.84375 C-347 454 -347 454 -347 456 C-346.34 456 -345.68 456 -345 456 C-344.01567727 457.08426935 -343.08861979 458.22065414 -342.1875 459.375 C-313.45652995 492.97361374 -260.87972139 500.53432434 -220 506 C-220 506.33 -220 506.66 -220 507 C-282.37285846 507.65901556 -282.37285846 507.65901556 -308 504 C-309.27891113 503.81775879 -310.55782227 503.63551758 -311.87548828 503.44775391 C-354.38509826 497.25384994 -396.64573901 486.36513624 -430 458 C-430.81855469 457.32710937 -431.63710938 456.65421875 -432.48046875 455.9609375 C-450.26243943 440.79801676 -462.61447452 418.35925447 -465 395 C-465.79078435 378.27421731 -465.49703015 362.18080351 -461 346 C-460.81228027 345.29004883 -460.62456055 344.58009766 -460.43115234 343.84863281 C-454.43146731 321.7327455 -442.89741642 300.79931755 -430 282 C-429.5659082 281.36320312 -429.13181641 280.72640625 -428.68457031 280.0703125 C-418.75843414 265.60455218 -407.65521567 252.09680079 -396 239 C-395.53045898 238.47116211 -395.06091797 237.94232422 -394.57714844 237.39746094 C-387.75581788 229.75698561 -380.58498752 222.46012193 -373.375 215.1875 C-372.48482178 214.28427002 -371.59464355 213.38104004 -370.67749023 212.45043945 C-369.84290283 211.61472412 -369.00831543 210.77900879 -368.1484375 209.91796875 C-367.39739746 209.16281982 -366.64635742 208.4076709 -365.87255859 207.62963867 C-364 206 -364 206 -362 206 C-362 205.34 -362 204.68 -362 204 C-360.6015625 202.58984375 -360.6015625 202.58984375 -358.625 200.9375 C-355.42453655 198.22076214 -352.28693937 195.45664781 -349.1875 192.625 C-344.84570979 188.70744578 -340.37926529 184.98063334 -335.83203125 181.3046875 C-332.96055884 178.96790306 -330.13731484 176.58037427 -327.3125 174.1875 C-320.78900379 168.74566318 -314.0209789 163.66444931 -307.18896484 158.61816406 C-304.94104529 156.95641849 -302.69881472 155.28719935 -300.45703125 153.6171875 C-283.69613423 141.16168131 -266.67574681 129.12618267 -249 118 C-248.20013672 117.49645996 -247.40027344 116.99291992 -246.57617188 116.47412109 C-217.60766771 98.29330892 -187.98691868 81.31410539 -157.50976562 65.78857422 C-154.56504786 64.28794801 -151.62463754 62.77924573 -148.68521118 61.26829529 C-130.81642629 52.10144607 -112.63949456 43.76327382 -94.23464966 35.73216248 C-89.98577941 33.87688952 -85.75186389 31.99322879 -81.53125 30.07421875 C-63.39124876 21.86047169 -44.80037537 14.82786804 -26.17053223 7.81744385 C-24.15803717 7.05951836 -22.14668543 6.29865238 -20.13574219 5.53662109 C-16.98994379 4.34772441 -13.84031588 3.17013669 -10.6875 2 C-9.80553955 1.66782471 -8.9235791 1.33564941 -8.01489258 0.9934082 C-2.23461093 -1.11730546 -2.23461093 -1.11730546 0 0 Z " fill="#39C460" transform="translate(649,413)"/>
<path d="M0 0 C39.56806192 -0.443971 78.40272272 1.45556459 117 11 C117.87140625 11.21350098 118.7428125 11.42700195 119.640625 11.64697266 C156.32481769 20.8386145 195.23715463 39.32263668 216.1875 72.3125 C231.72748388 98.72738313 235.10976565 128.41566333 227.46386719 158.08007812 C217.03133828 196.09844772 194.75848778 229.893631 169.1796875 259.42578125 C166.92352202 261.99084462 166.92352202 261.99084462 165 265 C164.34 265 163.68 265 163 265 C162.7628125 265.55171875 162.525625 266.1034375 162.28125 266.671875 C160.68754857 269.56774711 158.71082727 271.79512037 156.5 274.25 C155.7059375 275.14203125 154.911875 276.0340625 154.09375 276.953125 C152 279 152 279 150 279 C149.79632812 279.52980469 149.59265625 280.05960938 149.3828125 280.60546875 C147.39928082 284.0402284 144.69863 286.55284473 141.875 289.3125 C140.98723877 290.18950562 140.98723877 290.18950562 140.08154297 291.08422852 C136.55244263 294.54815395 132.94766635 297.87712091 129.19091797 301.09326172 C127.14943914 302.86994432 125.15745853 304.68418647 123.1796875 306.53125 C122.49374512 307.1713501 121.80780273 307.8114502 121.10107422 308.47094727 C118.06560227 311.31207282 115.03050441 314.15357506 112 317 C111.34 316.67 110.68 316.34 110 316 C110.51046875 315.37996094 111.0209375 314.75992187 111.546875 314.12109375 C113.57080329 311.65577684 115.58706451 309.18435915 117.60107422 306.7109375 C119.00929122 304.9886365 120.42827055 303.2756016 121.84765625 301.5625 C148.58095051 269.04158533 169.19850126 231.06383285 167 188 C164.89846372 167.00814433 153.57505556 147.55685314 137.5 134.1875 C135.67910405 132.77548026 133.84626316 131.37868566 132 130 C131.22269531 129.39671875 130.44539063 128.7934375 129.64453125 128.171875 C110.12236417 113.65287637 85.38277327 106.37340407 62 101 C61.29101562 100.83661133 60.58203125 100.67322266 59.8515625 100.50488281 C34.41064895 94.8215462 8.0234336 93.95389431 -17.9375 93.4375 C-19.98893887 93.39419058 -22.04037125 93.35057291 -24.09179688 93.30664062 C-29.06113046 93.20087959 -34.03053265 93.09926805 -39 93 C-31.211323 72.98180862 -22.74116611 53.27235874 -14.24441528 33.5473938 C-10.9244378 25.83594335 -7.64043621 18.10968178 -4.375 10.375 C-3.9200415 9.29742432 -3.46508301 8.21984863 -2.99633789 7.10961914 C-1.99668644 4.74011192 -0.99777268 2.37029882 0 0 Z " fill="#39C460" transform="translate(955,352)"/>
</svg>
