<?xml version="1.0" encoding="UTF-8"?>
<svg version="1.1" xmlns="http://www.w3.org/2000/svg" width="398" height="133">
<path d="M0 0 C37.62 0 75.24 0 114 0 C114 22.11 114 44.22 114 67 C76.38 67 38.76 67 0 67 C0 44.89 0 22.78 0 0 Z " fill="#E92327" transform="translate(14,11)"/>
<path d="M0 0 C2 1.8125 2 1.8125 3.0625 4.75 C3 7.8125 3 7.8125 1.0625 10.1875 C0.381875 10.72375 -0.29875 11.26 -1 11.8125 C-0.34 12.1425 0.32 12.4725 1 12.8125 C1 13.4725 1 14.1325 1 14.8125 C1.66 14.8125 2.32 14.8125 3 14.8125 C3.3403125 13.884375 3.3403125 13.884375 3.6875 12.9375 C5.44813176 10.08695334 6.77425149 9.61893713 10 8.8125 C15.43107522 8.92805479 18.17954764 11.0788761 22 14.8125 C22.70885894 16.12388904 23.38597716 17.45411928 24 18.8125 C23.94779297 17.14960937 23.94779297 17.14960937 23.89453125 15.453125 C23.86638651 13.98959852 23.83908708 12.52605561 23.8125 11.0625 C23.78736328 10.33289063 23.76222656 9.60328125 23.73632812 8.8515625 C23.69161022 5.57224952 23.77048417 3.23383022 25.35546875 0.32421875 C27 -1.1875 27 -1.1875 29.5 -1.625 C32 -1.1875 32 -1.1875 33.75 -0.1875 C35.72884931 2.97865889 35.69696193 6.11543552 36 9.8125 C36.60328125 9.76609375 37.2065625 9.7196875 37.828125 9.671875 C44.4373928 9.37339194 44.4373928 9.37339194 47.5625 11.8125 C48.036875 12.4725 48.51125 13.1325 49 13.8125 C49.66 13.1525 50.32 12.4925 51 11.8125 C54.15227563 9.71098292 56.21381162 9.16202347 60.00390625 9.35546875 C64.26319788 10.33068816 66.94789985 13.20929977 69.3125 16.8125 C70.10493607 19.11776858 70.5398011 21.42103903 71 23.8125 C70.9592334 23.25788086 70.9184668 22.70326172 70.87646484 22.13183594 C70.69764683 19.60939429 70.53616062 17.08612874 70.375 14.5625 C70.31054688 13.68980469 70.24609375 12.81710938 70.1796875 11.91796875 C70.128125 11.07363281 70.0765625 10.22929688 70.0234375 9.359375 C69.97106934 8.58432617 69.91870117 7.80927734 69.86474609 7.01074219 C70.02206306 4.45391559 70.61359894 2.95656482 72 0.8125 C74.375 -0.1875 74.375 -0.1875 77 -0.1875 C79.3125 1.4375 79.3125 1.4375 81 3.8125 C81.25 6.5625 81.25 6.5625 81 8.8125 C81.88751953 8.74289063 81.88751953 8.74289063 82.79296875 8.671875 C87.12446804 8.47402511 89.33153944 8.37595433 93.0625 10.8125 C93.701875 11.4725 94.34125 12.1325 95 12.8125 C95.680625 12.296875 96.36125 11.78125 97.0625 11.25 C100.91904535 9.3627544 102.88866495 9.71124954 107 10.8125 C110.18251523 12.93417682 111.87267139 14.62150708 114 17.8125 C114.4140625 20.07421875 114.4140625 20.07421875 114.625 22.5 C114.73714844 23.71236328 114.73714844 23.71236328 114.8515625 24.94921875 C114.90054688 25.56410156 114.94953125 26.17898437 115 26.8125 C116.32 27.1425 117.64 27.4725 119 27.8125 C119.75 30.0625 119.75 30.0625 120 32.8125 C118.625 35.1875 118.625 35.1875 116 36.8125 C113.59777003 36.79972218 111.38614381 36.50201773 109.0234375 36.07421875 C106.93454978 35.61262023 106.93454978 35.61262023 105 36.8125 C102.06364645 37.10132166 99.85361227 37.31640082 97 36.8125 C94.125 34.4375 94.125 34.4375 92 31.8125 C91.34 31.1525 90.68 30.4925 90 29.8125 C89.154375 30.451875 88.30875 31.09125 87.4375 31.75 C83.23454761 34.5685676 78.97896267 34.8125 74 34.8125 C73.67 35.1425 73.34 35.4725 73 35.8125 C71.31316676 35.85993292 69.62459147 35.84962994 67.9375 35.8125 C64.37242233 35.76614008 61.01984803 35.87379994 57.5 36.4375 C54 36.8125 54 36.8125 51 34.8125 C50.01 35.4725 49.02 36.1325 48 36.8125 C44.53371387 36.66807141 42.67651828 36.48901828 40.1875 34 C39.05218038 31.90862176 38.41677931 30.14646414 38 27.8125 C37.773125 28.92625 37.54625 30.04 37.3125 31.1875 C36 34.8125 36 34.8125 33.6875 36.3125 C30.6472688 36.87812441 28.99276629 36.56069157 26 35.8125 C24.44061845 35.58198273 22.87759927 35.37531191 21.3125 35.1875 C20.54550781 35.09210938 19.77851563 34.99671875 18.98828125 34.8984375 C16.92434182 34.64807104 16.92434182 34.64807104 15 35.8125 C8.73592579 36.33450618 5.90177547 35.73392038 1 31.8125 C0.0925 32.451875 -0.815 33.09125 -1.75 33.75 C-6.64425282 36.85596814 -10.18459654 37.21356231 -16 36.8125 C-19.98066095 35.23525698 -21.60667274 34.40249089 -24 30.8125 C-24.25 28.25 -24.25 28.25 -24 25.8125 C-23.34 25.1525 -22.68 24.4925 -22 23.8125 C-18.65547537 23.95946313 -15.38702784 24.39715459 -12.06640625 24.81640625 C-9.0027579 25.12403147 -9.0027579 25.12403147 -7.08984375 23.33984375 C-6.73019531 22.83582031 -6.37054688 22.33179687 -6 21.8125 C-7.21236328 21.57466797 -7.21236328 21.57466797 -8.44921875 21.33203125 C-13.27966347 20.27737444 -17.15149668 19.39992538 -21.25 16.5625 C-23.5474489 12.95222316 -23.66528397 11.02596517 -23 6.8125 C-21.10454048 2.86994421 -19.55521734 1.14998505 -15.8125 -1.125 C-10.06871214 -2.72572776 -5.51164581 -2.18169314 0 0 Z M-10 8.8125 C-6 9.8125 -6 9.8125 -6 9.8125 Z M11 19.8125 C10.67 21.4625 10.34 23.1125 10 24.8125 C10.99 25.3075 10.99 25.3075 12 25.8125 C12 23.8325 12 21.8525 12 19.8125 C11.67 19.8125 11.34 19.8125 11 19.8125 Z M57 20.8125 C57 22.4625 57 24.1125 57 25.8125 C57.33 25.8125 57.66 25.8125 58 25.8125 C58 24.1625 58 22.5125 58 20.8125 C57.67 20.8125 57.34 20.8125 57 20.8125 Z M101 21.8125 C101 23.4625 101 25.1125 101 26.8125 C101.66 26.4825 102.32 26.1525 103 25.8125 C102.67 24.4925 102.34 23.1725 102 21.8125 C101.67 21.8125 101.34 21.8125 101 21.8125 Z " fill="#F3F5FA" transform="translate(207,89.1875)"/>
<path d="M0 0 C2.5 0.5 2.5 0.5 4.3125 2 C6.03328032 5.62269541 5.69948095 8.51038102 5.5 12.5 C6.16 12.17 6.82 11.84 7.5 11.5 C11.78490153 11.09576401 13.82689468 11.04171552 17.4375 13.5 C18.118125 14.16 18.79875 14.82 19.5 15.5 C20.36625 14.84 21.2325 14.18 22.125 13.5 C25.90422792 11.26045753 27.22708174 10.55995798 31.5 11.5 C35.41413803 13.86021057 38.7921028 16.44097208 40.3125 20.86328125 C40.59857484 22.42392169 40.85261935 23.99086165 41.0703125 25.5625 C41.67546621 28.29119309 43.25014159 29.00009439 45.5 30.5 C46 33 46 33 45.5 35.5 C44 37.375 44 37.375 41.5 38.5 C39.5683556 38.30356159 37.63497035 38.09380788 35.72265625 37.7578125 C32.58121327 37.3934272 29.68651685 37.85177431 26.578125 38.34375 C24.31390311 38.51399225 22.6871492 38.0467873 20.5 37.5 C18.7675 37.8403125 18.7675 37.8403125 17 38.1875 C13.5 38.5 13.5 38.5 11.125 36.8125 C9.57531021 34.60717222 8.87742415 33.14196907 8.5 30.5 C7.84 32.81 7.18 35.12 6.5 37.5 C2.74376114 38.26832158 0.17323747 38.51330689 -3.5 37.5 C-4.49 37.83 -5.48 38.16 -6.5 38.5 C-8.1752357 38.21281674 -9.84080104 37.86871088 -11.5 37.5 C-16.07213631 36.6755164 -19.18287835 36.24055291 -23.625 37.625 C-28.25443183 38.67035558 -29.52873305 37.84665774 -33.5 35.5 C-37.39541482 35.5 -38.05494899 35.60200142 -41.125 37.4375 C-45.63016374 39.80419014 -50.39068947 40.99913336 -55.5 40.5 C-57.86337537 38.91546424 -58.42237027 37.76236358 -59.23046875 35.03125 C-60.27428653 28.10815088 -60.72582699 21.30985703 -60.8125 14.3125 C-60.83014404 13.47460938 -60.84778809 12.63671875 -60.8659668 11.7734375 C-60.86328125 9.39453125 -60.86328125 9.39453125 -60.5 5.5 C-56.22043276 2.64695517 -52.51839093 3.02018519 -47.5 3.5 C-41.54832863 5.36719102 -38.2878259 9.7820275 -34.5 14.5 C-34.00371094 14.18804687 -33.50742187 13.87609375 -32.99609375 13.5546875 C-29.29402558 11.43319872 -27.22019758 10.437914 -22.875 10.8125 C-18.60291305 12.94854348 -15.99257627 15.43272183 -13.5 19.5 C-12.625 22.9375 -12.625 22.9375 -12.5 25.5 C-12.54125 24.4275 -12.5825 23.355 -12.625 22.25 C-12.5114175 18.84252515 -12.28726636 17.29260369 -10.5 14.5 C-11.16 13.84 -11.82 13.18 -12.5 12.5 C-12.875 10.0625 -12.875 10.0625 -12.5 7.5 C-10.6875 5.6875 -10.6875 5.6875 -8.5 4.5 C-7.51 4.5 -6.52 4.5 -5.5 4.5 C-5.04625 3.84 -4.5925 3.18 -4.125 2.5 C-2.5 0.5 -2.5 0.5 0 0 Z M-50.5 13.5 C-50.38628503 15.79225435 -50.25869036 18.08382388 -50.125 20.375 C-50.05539063 21.65117188 -49.98578125 22.92734375 -49.9140625 24.2421875 C-49.82758894 27.58061699 -49.82758894 27.58061699 -47.5 29.5 C-44.79698828 27.30380298 -43.61584537 26.09209854 -42.9375 22.625 C-43.7186789 18.28511725 -45.39593181 16.60406819 -48.5 13.5 C-49.16 13.5 -49.82 13.5 -50.5 13.5 Z M-26.5 22.5 C-26.5 24.15 -26.5 25.8 -26.5 27.5 C-25.84 27.17 -25.18 26.84 -24.5 26.5 C-25.16 25.18 -25.82 23.86 -26.5 22.5 Z M27.5 22.5 C27.17 24.15 26.84 25.8 26.5 27.5 C27.16 27.5 27.82 27.5 28.5 27.5 C28.5 25.85 28.5 24.2 28.5 22.5 C28.17 22.5 27.84 22.5 27.5 22.5 Z " fill="#F2F4F9" transform="translate(74.5,85.5)"/>
<path d="M0 0 C2.5625 0.375 2.5625 0.375 4.375 2.1875 C5.5625 4.375 5.5625 4.375 5.5625 7.375 C6.655625 7.49875 7.74875 7.6225 8.875 7.75 C12.5625 8.375 12.5625 8.375 15.5625 10.375 C16.325625 10.065625 17.08875 9.75625 17.875 9.4375 C21.23408003 8.10949162 23.10449943 8.4729129 26.5625 9.375 C27.5525 10.035 28.5425 10.695 29.5625 11.375 C30.696875 11.49875 31.83125 11.6225 33 11.75 C36.94095851 12.44139623 38.10208336 13.32408337 40.5625 16.375 C40.954375 15.715 41.34625 15.055 41.75 14.375 C43.5625 12.375 43.5625 12.375 46.0625 11.9375 C49.05369191 12.46095858 49.76243448 12.96638961 51.5625 15.375 C52.25423314 19.42163889 52.15466488 23.31757397 51.5625 27.375 C49.3125 30.5 49.3125 30.5 46.5625 32.375 C45.6034375 33.055625 45.6034375 33.055625 44.625 33.75 C41.6659617 34.64667827 39.52694924 34.13188066 36.5625 33.375 C35.5725 32.715 34.5825 32.055 33.5625 31.375 C33.13839844 31.79652344 32.71429688 32.21804687 32.27734375 32.65234375 C28.19907031 36.46172004 25.3854116 38.47898056 19.5625 38.375 C13.23976737 36.40562426 13.23976737 36.40562426 11.125 33.1875 C10.939375 32.589375 10.75375 31.99125 10.5625 31.375 C9.5725 32.035 8.5825 32.695 7.5625 33.375 C3.6651276 33.88335292 2.05693274 33.70462183 -1.25 31.5 C-4.38321773 28.45630277 -4.38321773 28.45630277 -4.53515625 25.4296875 C-4.50260417 23.41145833 -4.47005208 21.39322917 -4.4375 19.375 C-6.0875 19.045 -7.7375 18.715 -9.4375 18.375 C-10.1875 16.125 -10.1875 16.125 -10.4375 13.375 C-8.625 11.0625 -8.625 11.0625 -6.4375 9.375 C-5.7775 9.375 -5.1175 9.375 -4.4375 9.375 C-4.47875 8.26125 -4.52 7.1475 -4.5625 6 C-4.42058552 1.88448008 -4.17018908 0.64156755 0 0 Z M6.5625 18.375 C6.2325 19.695 5.9025 21.015 5.5625 22.375 C9.24814084 24.83079697 9.24814084 24.83079697 13.5625 25.375 C12.5725 23.065 11.5825 20.755 10.5625 18.375 C9.2425 18.375 7.9225 18.375 6.5625 18.375 Z M40.5625 19.375 C41.5625 21.375 41.5625 21.375 41.5625 21.375 Z " fill="#F4F6FA" transform="translate(125.4375,86.625)"/>
<path d="M0 0 C3.875 1.875 3.875 1.875 5 3 C5.04080783 4.99958364 5.04254356 7.00045254 5 9 C6.093125 9.103125 7.18625 9.20625 8.3125 9.3125 C12.23469768 10.04375719 12.42426329 10.42426329 15 13 C15.969375 12.979375 16.93875 12.95875 17.9375 12.9375 C21 13 21 13 23.375 15 C23.91125 15.66 24.4475 16.32 25 17 C25.556875 16.319375 26.11375 15.63875 26.6875 14.9375 C29 13 29 13 31.625 13.0625 C34 14 34 14 36 17 C36.58760427 21.50242236 36.50290275 25.68686505 34.875 29.9375 C32.44246582 32.6132876 30.41230412 33.79565737 27 35 C23.44359184 34.85484048 21.48684489 34.31644918 18.5 32.375 C15.23818915 30.58100403 13.5280527 31.05918595 10 32 C7.83564719 32.86780317 7.83564719 32.86780317 6.6875 35.0625 C5 37 5 37 2.5625 37.625 C0 37 0 37 -2.3125 34 C-2.869375 33.01 -3.42625 32.02 -4 31 C-4.5259375 31.7425 -4.5259375 31.7425 -5.0625 32.5 C-7 34 -7 34 -10.375 34.5 C-14 34 -14 34 -16.8125 32 C-18.8284611 29.23525335 -19.38128306 28.05792741 -20.0625 24.875 C-21.0985082 20.59283277 -21.63533467 20.35526573 -25 18 C-25.5 15.5 -25.5 15.5 -25 13 C-24.38125 12.54625 -23.7625 12.0925 -23.125 11.625 C-20.07164269 9.29007971 -19.92590186 6.63747161 -19 3 C-18.34 2.34 -17.68 1.68 -17 1 C-13.70285207 1.32971479 -12.3773161 1.6226839 -10 4 C-9.375 6.125 -9.375 6.125 -9 8 C-7.68 8.33 -6.36 8.66 -5 9 C-4.9175 8.071875 -4.835 7.14375 -4.75 6.1875 C-4 3 -4 3 -1.9375 1.125 C-1.298125 0.75375 -0.65875 0.3825 0 0 Z M8 20 C10.475 20.99 10.475 20.99 13 22 C13 20.35 13 18.7 13 17 C11.03177114 17 9.49471455 18.84280164 8 20 Z M-10 20 C-10 20.99 -10 21.98 -10 23 C-8.7934375 23.185625 -8.7934375 23.185625 -7.5625 23.375 C-6.2940625 23.684375 -6.2940625 23.684375 -5 24 C-4.67 24.66 -4.34 25.32 -4 26 C-4 23.69 -4 21.38 -4 19 C-7.05270463 18.84188612 -7.05270463 18.84188612 -10 20 Z " fill="#F7F8FB" transform="translate(347,88)"/>
<path d="M0 0 C2.65454102 -0.34399414 2.65454102 -0.34399414 6 0 C8.12579506 1.79408384 9.74646984 3.41473391 11.52734375 5.50390625 C12.5772178 6.64921681 13.62870414 7.79305112 14.68164062 8.93554688 C16.31293958 10.73953994 17.92862716 12.55220893 19.5168457 14.39428711 C25.94227189 22.05769848 25.94227189 22.05769848 34.90795898 25.58496094 C38.72544338 25.34108637 42.26018098 24.78688031 46 24 C48.39397105 23.6934231 50.78967737 23.39983349 53.1875 23.125 C55.08369963 22.85411434 56.97986754 22.58294108 58.875 22.3046875 C61.23733474 21.96597039 63.60263099 21.65489103 65.96875 21.34375 C74.60325246 20.17276398 82.70188929 18.8634498 90.8828125 15.76953125 C93 15 93 15 95 15 C95 14.01 95 13.02 95 12 C72.60426049 6.14859326 51.1374597 4.5040883 28 5 C28.51498047 5.50974365 29.02996094 6.0194873 29.56054688 6.54467773 C31.87627044 8.83970648 34.18817781 11.13854168 36.5 13.4375 C37.31082031 14.23994141 38.12164062 15.04238281 38.95703125 15.86914062 C39.72402344 16.63291016 40.49101563 17.39667969 41.28125 18.18359375 C41.99345703 18.89056396 42.70566406 19.59753418 43.43945312 20.32592773 C45 22 45 22 45 23 C40.19166828 24.13216062 35.91903756 24.61503376 31 24 C26.05930045 20.9300932 22.46535018 16.94539396 18.625 12.625 C17.58427678 11.51748893 16.54002377 10.4132837 15.4921875 9.3125 C8 1.36385857 8 1.36385857 8 0 C77.34445269 -0.80316989 77.34445269 -0.80316989 98 11 C98.375 13.25 98.375 13.25 98 16 C93.21481255 20.26243588 87.19675764 21.91981857 81.1875 23.875 C80.13941162 24.21942139 79.09132324 24.56384277 78.01147461 24.91870117 C38.74197951 37.51821142 38.74197951 37.51821142 20 37 C21.2491742 33.54074837 22.67527795 30.85306797 25 28 C23.41881753 24.09405504 20.73959252 21.49841879 17.7734375 18.61328125 C17.26575836 18.11080368 16.75807922 17.60832611 16.23501587 17.09062195 C14.61970677 15.49306947 12.99784316 13.9023957 11.375 12.3125 C9.7459291 10.71101201 8.11832953 9.10809584 6.49356079 7.50224304 C5.48356137 6.50454156 4.47090184 5.50952476 3.45541382 4.51741028 C2.28484194 3.36367658 1.13955867 2.18437578 0 1 C0 0.67 0 0.34 0 0 Z " fill="#FEF8F8" transform="translate(22,27)"/>
<path d="M0 0 C2.97 0 5.94 0 9 0 C9 4.62 9 9.24 9 14 C12.63 14 16.26 14 20 14 C20 9.38 20 4.76 20 0 C22.97 0 25.94 0 29 0 C29.02465098 4.96622349 29.04283649 9.93241166 29.05493164 14.89868164 C29.0599719 16.58944316 29.06680405 18.28020029 29.07543945 19.97094727 C29.08751857 22.39600707 29.09323123 24.82100944 29.09765625 27.24609375 C29.10281754 28.00651474 29.10797882 28.76693573 29.11329651 29.55039978 C29.11349238 31.3673257 29.06197277 33.18413127 29 35 C28.67 35.33 28.34 35.66 28 36 C25.36 36 22.72 36 20 36 C20 30.39 20 24.78 20 19 C16.37 19 12.74 19 9 19 C9 24.61 9 30.22 9 36 C6.36 36 3.72 36 1 36 C0 35 0 35 -0.11352539 31.67358398 C-0.11336629 30.19774444 -0.10767314 28.72189931 -0.09765625 27.24609375 C-0.09553383 26.08292381 -0.09553383 26.08292381 -0.09336853 24.89625549 C-0.08775345 22.40996506 -0.07519846 19.9237634 -0.0625 17.4375 C-0.05748694 15.75586067 -0.0529237 14.07421994 -0.04882812 12.39257812 C-0.03777913 8.26168434 -0.02050445 4.13085724 0 0 Z " fill="#E8292E" transform="translate(239,26)"/>
<path d="M0 0 C3.320625 -0.12375 6.64125 -0.2475 10.0625 -0.375 C11.09511963 -0.42962402 12.12773926 -0.48424805 13.19165039 -0.54052734 C18.00973204 -0.62697117 21.23276107 -0.38583451 25.05859375 2.7109375 C29.57634802 7.29677491 30.31839183 11.45772905 30.4375 17.8125 C30.35169186 23.26989771 29.74264412 26.93486112 26.6796875 31.44921875 C21.32619963 36.39185755 15.98977715 36.3875309 9.125 36.1875 C6.11375 36.125625 3.1025 36.06375 0 36 C0 24.12 0 12.24 0 0 Z M8 4 C8 12.91 8 21.82 8 31 C10.97 31 13.94 31 17 31 C21.21949768 26.78050232 21.17624031 23.95919536 21.25 18.1875 C21.27578125 16.98480469 21.3015625 15.78210938 21.328125 14.54296875 C20.94736219 10.43163697 20.61346455 8.2377922 18 5 C14.7 4.67 11.4 4.34 8 4 Z " fill="#E62529" transform="translate(151,26)"/>
<path d="M0 0 C65.292318 -0.75623676 65.292318 -0.75623676 86 9 C85.67 9.99 85.34 10.98 85 12 C83.77925781 11.55011719 82.55851562 11.10023437 81.30078125 10.63671875 C75.36329617 8.66835739 69.36704886 7.70123243 63.1875 6.8125 C61.98512695 6.6381543 60.78275391 6.46380859 59.54394531 6.28417969 C46.35055924 4.53623562 33.28844929 4.60323877 20 5 C20.51498047 5.50974365 21.02996094 6.0194873 21.56054688 6.54467773 C23.87627044 8.83970648 26.18817781 11.13854168 28.5 13.4375 C29.31082031 14.23994141 30.12164062 15.04238281 30.95703125 15.86914062 C31.72402344 16.63291016 32.49101563 17.39667969 33.28125 18.18359375 C33.99345703 18.89056396 34.70566406 19.59753418 35.43945312 20.32592773 C37 22 37 22 37 23 C32.19166828 24.13216062 27.91903756 24.61503376 23 24 C18.05930045 20.9300932 14.46535018 16.94539396 10.625 12.625 C9.58427678 11.51748893 8.54002377 10.4132837 7.4921875 9.3125 C0 1.36385857 0 1.36385857 0 0 Z " fill="#FDF3F3" transform="translate(30,27)"/>
<path d="M0 0 C2.05078125 0.03255208 4.1015625 0.06510417 6.15234375 0.09765625 C9.12362308 7.3369004 11.82956721 14.6455703 14.40234375 22.03515625 C14.76585937 23.06189453 15.129375 24.08863281 15.50390625 25.14648438 C15.84679687 26.12939453 16.1896875 27.11230469 16.54296875 28.125 C16.85266602 29.00921631 17.16236328 29.89343262 17.48144531 30.80444336 C18.15234375 33.09765625 18.15234375 33.09765625 18.15234375 36.09765625 C15.18234375 36.09765625 12.21234375 36.09765625 9.15234375 36.09765625 C8.16234375 33.45765625 7.17234375 30.81765625 6.15234375 28.09765625 C2.19234375 27.76765625 -1.76765625 27.43765625 -5.84765625 27.09765625 C-6.15703125 28.39703125 -6.46640625 29.69640625 -6.78515625 31.03515625 C-7.72265625 34.97265625 -7.72265625 34.97265625 -8.84765625 36.09765625 C-10.5138274 36.13829457 -12.1815372 36.14037725 -13.84765625 36.09765625 C-12.33100967 28.34038193 -9.90486623 21.0470685 -7.28515625 13.59765625 C-6.87330078 12.4065625 -6.46144531 11.21546875 -6.03710938 9.98828125 C-2.6017095 0.13751107 -2.6017095 0.13751107 0 0 Z M0.15234375 9.09765625 C-0.51823512 10.88786235 -1.18400315 12.67987114 -1.84765625 14.47265625 C-2.21890625 15.47039063 -2.59015625 16.468125 -2.97265625 17.49609375 C-3.95391902 19.95613686 -3.95391902 19.95613686 -3.84765625 22.09765625 C-0.87765625 22.09765625 2.09234375 22.09765625 5.15234375 22.09765625 C3.83234375 17.80765625 2.51234375 13.51765625 1.15234375 9.09765625 C0.82234375 9.09765625 0.49234375 9.09765625 0.15234375 9.09765625 Z " fill="#E8262B" transform="translate(197.84765625,25.90234375)"/>
<path d="M0 0 C2.97 0 5.94 0 9 0 C11.03195493 5.49271967 13.05806144 10.98752949 15.07617188 16.48535156 C15.65684269 18.06593015 16.2386988 19.6460743 16.82226562 21.22558594 C17.53206746 23.1486537 18.23502313 25.07424444 18.9375 27 C19.33839844 28.093125 19.73929687 29.18625 20.15234375 30.3125 C21 33 21 33 21 36 C18.03 36 15.06 36 12 36 C11.01 33.03 10.02 30.06 9 27 C5.04 27 1.08 27 -3 27 C-3.99 29.97 -4.98 32.94 -6 36 C-7.65 36 -9.3 36 -11 36 C-9.44435164 28.0764504 -6.97360331 20.57495755 -4.375 12.9375 C-3.95476562 11.69033203 -3.53453125 10.44316406 -3.1015625 9.15820312 C-2.07181153 6.10405535 -1.03786449 3.05139815 0 0 Z M2 9 C1.49487756 10.60256108 0.99608373 12.20711792 0.5 13.8125 C0.2215625 14.70582031 -0.056875 15.59914063 -0.34375 16.51953125 C-1.12788351 19.05573395 -1.12788351 19.05573395 -1 22 C1.64 22 4.28 22 7 22 C6.55170486 20.01853549 6.09107502 18.03985789 5.625 16.0625 C5.24214844 14.40927734 5.24214844 14.40927734 4.8515625 12.72265625 C4.57054687 11.82417969 4.28953125 10.92570312 4 10 C3.34 9.67 2.68 9.34 2 9 Z " fill="#E8272B" transform="translate(283,26)"/>
<path d="M0 0 C2.05078125 0.03255208 4.1015625 0.06510417 6.15234375 0.09765625 C6.1773999 0.89985596 6.20245605 1.70205566 6.22827148 2.52856445 C6.34416418 6.15592699 6.46692126 9.78302542 6.58984375 13.41015625 C6.62916016 14.67279297 6.66847656 15.93542969 6.70898438 17.23632812 C6.77182617 19.04907227 6.77182617 19.04907227 6.8359375 20.8984375 C6.87259521 22.01387939 6.90925293 23.12932129 6.94702148 24.27856445 C7.04165584 27.17639196 7.04165584 27.17639196 8.15234375 30.09765625 C12.65490657 31.29467471 12.65490657 31.29467471 16.85083008 30.01831055 C18.73247001 27.24155921 18.58863969 25.01337549 18.6640625 21.6796875 C18.69951172 20.42607422 18.73496094 19.17246094 18.77148438 17.88085938 C18.79404297 16.57052734 18.81660156 15.26019531 18.83984375 13.91015625 C18.87302041 12.57483612 18.90751041 11.23954793 18.94335938 9.90429688 C19.02596432 6.63550121 19.09507604 3.36697813 19.15234375 0.09765625 C20.80234375 0.09765625 22.45234375 0.09765625 24.15234375 0.09765625 C24.30114267 4.42083705 24.40976237 8.74264628 24.48193359 13.06762695 C24.51202913 14.53729221 24.55291781 16.00677896 24.60498047 17.47583008 C24.67813445 19.59370966 24.71186589 21.7092087 24.73828125 23.828125 C24.7854126 25.73694458 24.7854126 25.73694458 24.83349609 27.68432617 C24.12883149 31.21547879 23.85976466 31.78714787 21.30322266 34.01269531 C16.34172583 37.29575613 11.90125303 36.96393025 6.15234375 36.09765625 C2.38245675 34.60992307 0.40971508 32.48371325 -1.84765625 29.09765625 C-2.77538954 25.57035992 -2.97606224 22.25053873 -2.98046875 18.61328125 C-2.98175781 17.59621094 -2.98304688 16.57914063 -2.984375 15.53125 C-2.98050781 14.48066406 -2.97664063 13.43007813 -2.97265625 12.34765625 C-2.97652344 11.28160156 -2.98039062 10.21554688 -2.984375 9.1171875 C-2.98308594 8.10527344 -2.98179687 7.09335937 -2.98046875 6.05078125 C-2.97934082 5.12426758 -2.97821289 4.19775391 -2.97705078 3.24316406 C-2.81437344 0.54578964 -2.70754797 0.14310507 0 0 Z " fill="#E92327" transform="translate(358.84765625,25.90234375)"/>
<path d="M0 0 C4.48767668 0.15418781 7.91605215 1.42191131 11.3125 4.375 C14.81775606 8.31357689 17.64998586 12.22466056 17.875 17.625 C17.29253754 21.50808309 16.61294115 23.25618065 14.3125 26.375 C11.7890625 27.95703125 11.7890625 27.95703125 8.9375 29.1875 C8.00164063 29.60644531 7.06578125 30.02539062 6.1015625 30.45703125 C3.31215984 31.37511196 1.22420202 31.56029013 -1.6875 31.375 C-4.07050498 27.57020213 -4.34962378 23.48817747 -4.8125 19.125 C-4.89886719 18.39925781 -4.98523438 17.67351562 -5.07421875 16.92578125 C-5.62187203 12.04905918 -5.93387878 7.2811513 -5.6875 2.375 C-3.6875 0.375 -3.6875 0.375 0 0 Z M2.3125 7.375 C2.42621497 9.66725435 2.55380964 11.95882388 2.6875 14.25 C2.75710937 15.52617188 2.82671875 16.80234375 2.8984375 18.1171875 C2.98491106 21.45561699 2.98491106 21.45561699 5.3125 23.375 C8.01551172 21.17880298 9.19665463 19.96709854 9.875 16.5 C9.0938211 12.16011725 7.41656819 10.47906819 4.3125 7.375 C3.6525 7.375 2.9925 7.375 2.3125 7.375 Z " fill="#375FAB" transform="translate(21.6875,91.625)"/>
<path d="M0 0 C0 1.65 0 3.3 0 5 C-0.680625 4.835 -1.36125 4.67 -2.0625 4.5 C-5.4164822 3.92910941 -8.60389805 3.93340977 -12 4 C-12.33 4.99 -12.66 5.98 -13 7 C-10.42464291 9.72684869 -8.0143755 11.99051217 -4.875 14.0625 C-0.74303394 16.84708582 0.64157846 18.59191537 1.875 23.4375 C2.01718844 27.48987056 1.5123699 28.88119599 -1 32 C-4.30382311 35.09547391 -6.59347511 35.3607565 -11.0625 35.25 C-12.62677734 35.22679688 -12.62677734 35.22679688 -14.22265625 35.203125 C-17 35 -17 35 -20 34 C-20 32.02 -20 30.04 -20 28 C-18.989375 28.33 -17.97875 28.66 -16.9375 29 C-13.24520089 30.07001321 -9.84751793 30.15704155 -6 30 C-6.81725782 25.21320421 -8.59066747 23.30909274 -12.375 20.5625 C-16.72199832 17.37236414 -19.0169113 15.04786215 -21 10 C-21 5.89778618 -20.67322909 3.85275684 -18.125 0.625 C-12.55684895 -3.63299787 -6.14598442 -2.39843294 0 0 Z " fill="#E92A2E" transform="translate(350,27)"/>
<path d="M0 0 C9.57 0 19.14 0 29 0 C28.67 1.65 28.34 3.3 28 5 C25.03 5 22.06 5 19 5 C19.00785522 6.35532837 19.00785522 6.35532837 19.01586914 7.73803711 C19.03287686 11.07951489 19.04543333 14.42094692 19.05493164 17.76245117 C19.05997101 19.21070073 19.06680253 20.65894517 19.07543945 22.10717773 C19.08752247 24.18474588 19.09323211 26.26224697 19.09765625 28.33984375 C19.10551147 30.21724243 19.10551147 30.21724243 19.11352539 32.13256836 C19 35 19 35 18 36 C14.5 36.125 14.5 36.125 11 36 C10 35 10 35 9.88647461 32.13256836 C9.89171143 30.88096924 9.89694824 29.62937012 9.90234375 28.33984375 C9.9037587 27.67537735 9.90517365 27.01091095 9.90663147 26.3263092 C9.91224482 24.19666101 9.92479946 22.06711661 9.9375 19.9375 C9.94251329 18.49674631 9.94707649 17.05599097 9.95117188 15.61523438 C9.96221855 12.07678898 9.97949208 8.53840461 10 5 C7.03 5 4.06 5 1 5 C0.67 3.35 0.34 1.7 0 0 Z " fill="#E62328" transform="translate(300,26)"/>
<path d="M0 0 C3.36727104 2.08071937 5.5485409 4.5272072 6.71484375 8.33203125 C7.02030052 9.8946572 7.27901405 11.46747015 7.48046875 13.046875 C7.87420643 15.39388583 7.87420643 15.39388583 11 17 C10.67 17.99 10.34 18.98 10 20 C9.35933594 19.98839844 8.71867187 19.97679688 8.05859375 19.96484375 C3.91397051 19.92160625 0.26451361 19.94362825 -3.8125 20.8125 C-7 21 -7 21 -9.9375 19.1875 C-12.79185083 14.77623053 -12.93368391 11.12264416 -12 6 C-8.81987724 0.80579948 -6.08813027 -0.819556 0 0 Z M-4 8 C-4 9.65 -4 11.3 -4 13 C-3.67 13 -3.34 13 -3 13 C-3 11.35 -3 9.7 -3 8 C-3.33 8 -3.66 8 -4 8 Z " fill="#345CAA" transform="translate(268,102)"/>
<path d="M0 0 C4.52831662 0.08708301 6.48844104 0.53292443 9.875 3.625 C12.18077937 7.28712017 12.44244543 9.77851542 13 14 C14.97670607 15.75422772 14.97670607 15.75422772 17 17 C17 17.99 17 18.98 17 20 C15.82630859 19.98259766 15.82630859 19.98259766 14.62890625 19.96484375 C13.61699219 19.95582031 12.60507813 19.94679688 11.5625 19.9375 C10.55316406 19.92589844 9.54382813 19.91429688 8.50390625 19.90234375 C6.05978933 19.71387324 6.05978933 19.71387324 5 21 C1.12535504 21.52836068 -0.5660793 21.28299176 -3.875 19.125 C-6.46858747 15.31090078 -6.71325382 12.91026812 -6.50390625 8.37890625 C-5.74500399 4.79618162 -3.85351561 3.15753619 -1 1 C-0.67 0.67 -0.34 0.34 0 0 Z M2 8 C1.67 9.65 1.34 11.3 1 13 C1.66 13 2.32 13 3 13 C3 11.35 3 9.7 3 8 C2.67 8 2.34 8 2 8 Z " fill="#355DAA" transform="translate(100,100)"/>
<path d="M0 0 C2.97 0 5.94 0 9 0 C9.02465098 4.96622349 9.04283649 9.93241166 9.05493164 14.89868164 C9.0599719 16.58944316 9.06680405 18.28020029 9.07543945 19.97094727 C9.08751857 22.39600707 9.09323123 24.82100944 9.09765625 27.24609375 C9.10281754 28.00651474 9.10797882 28.76693573 9.11329651 29.55039978 C9.11349238 31.3673257 9.06197277 33.18413127 9 35 C8.505 35.495 8.505 35.495 8 36 C5.36 36 2.72 36 0 36 C0 24.12 0 12.24 0 0 Z " fill="#E7252A" transform="translate(221,26)"/>
<path d="M0 0 C1.32 0 2.64 0 4 0 C4.33 2.31 4.66 4.62 5 7 C5.68707031 7.02578125 6.37414062 7.0515625 7.08203125 7.078125 C7.98308594 7.13484375 8.88414062 7.1915625 9.8125 7.25 C11.15248047 7.31960937 11.15248047 7.31960937 12.51953125 7.390625 C15 8 15 8 16.8203125 9.83984375 C18.69246186 13.26798479 18.06559679 15.3017523 17 19 C14.81506917 22.20752928 12.51028888 25.24485556 9 27 C6.6670134 27.04022391 4.33293334 27.04320247 2 27 C-0.40929552 21.36566322 -0.23079831 16.1310889 -0.125 10.125 C-0.11597656 9.15046875 -0.10695313 8.1759375 -0.09765625 7.171875 C-0.07421623 4.78099272 -0.04140442 2.39062739 0 0 Z " fill="#335BA9" transform="translate(281,93)"/>
<path d="M0 0 C4.29623151 0.84390262 5.74602872 2.36653463 8.5 5.6875 C8.83 6.0175 9.16 6.3475 9.5 6.6875 C9.99118348 8.96927055 10.39887035 11.26019299 10.8046875 13.55859375 C11.37599358 16.05168127 11.37599358 16.05168127 14.5 17.6875 C14.17 18.6775 13.84 19.6675 13.5 20.6875 C12.87351563 20.60371094 12.24703125 20.51992187 11.6015625 20.43359375 C10.78429687 20.33175781 9.96703125 20.22992188 9.125 20.125 C8.31289062 20.02058594 7.50078125 19.91617188 6.6640625 19.80859375 C4.45100814 19.50512672 4.45100814 19.50512672 2.5 20.6875 C-1.43429172 21.21207223 -3.04458957 20.99440703 -6.375 18.75 C-8.85207964 15.18009111 -9.24404099 13.1739598 -8.98046875 8.9140625 C-7.86688971 3.75357428 -5.29953047 1.0409792 0 0 Z M-0.5 7.6875 C-0.83 9.3375 -1.16 10.9875 -1.5 12.6875 C-0.51 13.1825 -0.51 13.1825 0.5 13.6875 C0.5 11.7075 0.5 9.7275 0.5 7.6875 C0.17 7.6875 -0.16 7.6875 -0.5 7.6875 Z " fill="#345CAA" transform="translate(218.5,101.3125)"/>
<path d="M0 0 C5.26799476 4.44852891 6.11870052 9.34421586 7 16 C7.99 16 8.98 16 10 16 C9.67 17.32 9.34 18.64 9 20 C8.36191406 19.91621094 7.72382812 19.83242187 7.06640625 19.74609375 C6.24011719 19.64425781 5.41382812 19.54242188 4.5625 19.4375 C3.73878906 19.33308594 2.91507813 19.22867188 2.06640625 19.12109375 C1.38449219 19.08113281 0.70257813 19.04117188 0 19 C-0.33 19.33 -0.66 19.66 -1 20 C-4.67643975 20.34683394 -7.14823505 20.45864266 -10.4375 18.6875 C-12.98388747 14.30771355 -12.83043914 9.92435843 -12 5 C-8.79199939 0.04218087 -5.79283079 -1.13787748 0 0 Z M-5 8 C-5 9.65 -5 11.3 -5 13 C-4.34 12.67 -3.68 12.34 -3 12 C-3.66 10.68 -4.32 9.36 -5 8 Z " fill="#365EAB" transform="translate(53,100)"/>
<path d="M0 0 C3.56653179 0.85795298 4.90896215 2.50976806 6.96484375 5.47265625 C7.62593163 7.81064996 8.07850454 10.07787781 8.41015625 12.484375 C8.84006908 14.8606431 8.84006908 14.8606431 11.96484375 16.47265625 C11.63484375 17.79265625 11.30484375 19.11265625 10.96484375 20.47265625 C10.32675781 20.38886719 9.68867188 20.30507812 9.03125 20.21875 C8.20496094 20.11691406 7.37867188 20.01507813 6.52734375 19.91015625 C5.70363281 19.80574219 4.87992187 19.70132813 4.03125 19.59375 C3.34933594 19.55378906 2.66742188 19.51382813 1.96484375 19.47265625 C1.63484375 19.80265625 1.30484375 20.13265625 0.96484375 20.47265625 C-2.711596 20.81949019 -5.1833913 20.93129891 -8.47265625 19.16015625 C-11.01808966 14.78201079 -10.73493254 10.40024763 -10.03515625 5.47265625 C-7.78799631 0.69744137 -5.32067962 -0.38641807 0 0 Z M-3.03515625 8.47265625 C-3.03515625 10.12265625 -3.03515625 11.77265625 -3.03515625 13.47265625 C-2.37515625 13.14265625 -1.71515625 12.81265625 -1.03515625 12.47265625 C-1.36515625 11.15265625 -1.69515625 9.83265625 -2.03515625 8.47265625 C-2.36515625 8.47265625 -2.69515625 8.47265625 -3.03515625 8.47265625 Z " fill="#345CAA" transform="translate(311.03515625,102.52734375)"/>
<path d="M0 0 C1.8671875 1.53125 1.8671875 1.53125 3 3 C2.67 3.99 2.34 4.98 2 6 C1.505 5.835 1.01 5.67 0.5 5.5 C-3.03444089 4.79311182 -6.39690701 4.93994845 -10 5 C-10.33 6.32 -10.66 7.64 -11 9 C-10.16855469 9.25394531 -9.33710938 9.50789063 -8.48046875 9.76953125 C-7.39378906 10.11371094 -6.30710938 10.45789063 -5.1875 10.8125 C-3.56908203 11.31716797 -3.56908203 11.31716797 -1.91796875 11.83203125 C0.86996214 12.94795004 2.29696473 13.56460144 4 16 C4.68863568 19.06442875 4.59406659 21.92165492 4 25 C1.81840855 27.75569447 0.12822506 29.43588747 -3 31 C-4.9753988 31.14779962 -6.95678924 31.22118966 -8.9375 31.25 C-9.99839844 31.27578125 -11.05929688 31.3015625 -12.15234375 31.328125 C-15 31 -15 31 -16.87890625 29.671875 C-18 28 -18 28 -18 25 C-17.09636719 25.08378906 -16.19273437 25.16757813 -15.26171875 25.25390625 C-14.08222656 25.35574219 -12.90273437 25.45757812 -11.6875 25.5625 C-10.51574219 25.66691406 -9.34398437 25.77132812 -8.13671875 25.87890625 C-4.96967425 26.18577434 -4.96967425 26.18577434 -2 25 C-1.67 23.02 -1.34 21.04 -1 19 C-6.92162534 16.32536964 -6.92162534 16.32536964 -12.9375 13.875 C-15 13 -15 13 -17 11 C-17.5948498 7.17596558 -17.27374575 5.44972515 -15.25 2.125 C-10.46760174 -1.00195271 -5.5761416 -0.9531866 0 0 Z " fill="#2D56A7" transform="translate(204,91)"/>
<path d="M0 0 C1.98 0.495 1.98 0.495 4 1 C4 4.63 4 8.26 4 12 C5.32 11.67 6.64 11.34 8 11 C14.3083004 10.44664032 14.3083004 10.44664032 16.875 12.5 C19.60119419 18.5582093 19.13580928 25.48115476 19 32 C17.125 31.75 17.125 31.75 15 31 C12.7197179 27.87357548 12.78505524 25.02768012 12.875 21.25 C12.89304687 20.26515625 12.91109375 19.2803125 12.9296875 18.265625 C12.95289062 17.51796875 12.97609375 16.7703125 13 16 C9.81765895 17.75454385 9.81765895 17.75454385 7 20 C6.76636119 21.84891946 6.58696365 23.70488031 6.4375 25.5625 C6.35371094 26.57441406 6.26992187 27.58632812 6.18359375 28.62890625 C6.12300781 29.41136719 6.06242187 30.19382812 6 31 C4.0625 31.5625 4.0625 31.5625 2 32 C-0.18347687 29.81652313 0.24577634 25.15853083 -0.0625 22.125 C-0.19555542 20.83456787 -0.19555542 20.83456787 -0.33129883 19.51806641 C-1.55383708 7.05356807 -1.55383708 7.05356807 -1 1 C-0.67 0.67 -0.34 0.34 0 0 Z " fill="#3059A8" transform="translate(73,89)"/>
<path d="M0 0 C1.32 0.33 2.64 0.66 4 1 C4 4.63 4 8.26 4 12 C5.65 11.67 7.3 11.34 9 11 C12.6875 10.75 12.6875 10.75 16 11 C17.91562291 13.87343437 18.29210899 14.77503541 18.6328125 18.01171875 C18.75849609 19.14770508 18.75849609 19.14770508 18.88671875 20.30664062 C18.96535156 21.09232422 19.04398438 21.87800781 19.125 22.6875 C19.21136719 23.48478516 19.29773438 24.28207031 19.38671875 25.10351562 C19.59848472 27.06823326 19.80021473 29.03402796 20 31 C18.68 31.33 17.36 31.66 16 32 C11.98323176 27.14640505 12.71863841 21.95027665 13 16 C9.85602535 16.60751405 9.85602535 16.60751405 7 19 C6.1362967 22.99259074 6.01264048 26.92344518 6 31 C4.35 31 2.7 31 1 31 C0.11436911 27.20925463 -0.11681301 23.71304102 -0.09765625 19.82421875 C-0.09443359 18.66728516 -0.09121094 17.51035156 -0.08789062 16.31835938 C-0.07951172 15.12017578 -0.07113281 13.92199219 -0.0625 12.6875 C-0.05798828 11.46998047 -0.05347656 10.25246094 -0.04882812 8.99804688 C-0.03706578 5.99864774 -0.02062826 2.99934911 0 0 Z " fill="#345CAA" transform="translate(235,91)"/>
<path d="M0 0 C0.99 0.66 1.98 1.32 3 2 C2.67 2.99 2.34 3.98 2 5 C-0.64 5 -3.28 5 -6 5 C-6 5.66 -6 6.32 -6 7 C-4.9275 7.0825 -3.855 7.165 -2.75 7.25 C1 8 1 8 3.5 9.625 C5 12 5 12 4.9375 15.5625 C4.00757473 18.97222598 3.72752324 19.97106289 1 22 C-1.375 22.36328125 -1.375 22.36328125 -4 22.3125 C-4.86625 22.30863281 -5.7325 22.30476563 -6.625 22.30078125 C-9 22 -9 22 -12 20 C-12 18.68 -12 17.36 -12 16 C-8.7 16.33 -5.4 16.66 -2 17 C-2 15.68 -2 14.36 -2 13 C-3.299375 12.855625 -4.59875 12.71125 -5.9375 12.5625 C-9.875 12.125 -9.875 12.125 -11 11 C-11.45714286 3.91428571 -11.45714286 3.91428571 -10 1 C-6.81374429 -0.59312786 -3.48933044 -0.54169041 0 0 Z " fill="#2F57A7" transform="translate(151,99)"/>
<path d="M0 0 C0.99 0 1.98 0 3 0 C3.33 2.31 3.66 4.62 4 7 C6.31 7.66 8.62 8.32 11 9 C11 9.99 11 10.98 11 12 C9.68 12.33 8.36 12.66 7 13 C6.87184635 15.3852733 6.87184635 15.3852733 8 18 C10.52667787 19.67198768 13.19936568 20.85805571 16 22 C16 22.66 16 23.32 16 24 C12.37 24 8.74 24 5 24 C5 25.98 5 27.96 5 30 C4.01 30 3.02 30 2 30 C-0.31092077 20.30759444 -1.54354124 10.99156687 -1 1 C-0.67 0.67 -0.34 0.34 0 0 Z " fill="#335BA9" transform="translate(346,92)"/>
<path d="M0 0 C0.99 0.33 1.98 0.66 3 1 C4.1875 4.0625 4.1875 4.0625 5 7 C7.31 7.33 9.62 7.66 12 8 C12 9.32 12 10.64 12 12 C9.36 12.99 6.72 13.98 4 15 C3.58219121 17.37305578 3.58219121 17.37305578 4 20 C6.40858714 21.8624438 6.40858714 21.8624438 9 23 C8.67 24.32 8.34 25.64 8 27 C1.47535771 26.51669316 1.47535771 26.51669316 -0.4375 24.4375 C-1.25383472 20.90004954 -1.12094463 17.62833901 -1 14 C-2.65 13.67 -4.3 13.34 -6 13 C-4.25 9.125 -4.25 9.125 -2 8 C-1.62599214 5.67284 -1.29235267 3.33882138 -1 1 C-0.67 0.67 -0.34 0.34 0 0 Z " fill="#3B61AC" transform="translate(331,92)"/>
<path d="M0 0 C0.99 0 1.98 0 3 0 C3.350625 1.134375 3.70125 2.26875 4.0625 3.4375 C4.79385681 5.39305564 4.79385681 5.39305564 6 7 C9.58863524 8.0615942 9.58863524 8.0615942 13 8 C12.67 9.32 12.34 10.64 12 12 C9.69 12.66 7.38 13.32 5 14 C4.58253392 16.87364791 4.58253392 16.87364791 5 20 C7.39056942 21.9354148 7.39056942 21.9354148 10 23 C9.34 24.32 8.68 25.64 8 27 C5.6875 27.25 5.6875 27.25 3 27 C0.01033704 24.54420543 -0.26560003 21.91995181 -0.6875 18.25 C-0.80395353 16.83429039 -0.91214662 15.41777182 -1 14 C-2.32 13.67 -3.64 13.34 -5 13 C-4.6875 11.125 -4.6875 11.125 -4 9 C-3.01 8.34 -2.02 7.68 -1 7 C-0.26393501 3.43230448 -0.26393501 3.43230448 0 0 Z " fill="#2F58A8" transform="translate(124,90)"/>
<path d="M0 0 C-0.33 1.65 -0.66 3.3 -1 5 C-0.67 4.67 -0.34 4.34 0 4 C1.9375 3.3125 1.9375 3.3125 4 3 C6.41486943 5.41486943 6.2961925 6.12707789 6.3125 9.4375 C6.32925781 10.21996094 6.34601563 11.00242187 6.36328125 11.80859375 C5.92353251 14.46127163 5.04371546 15.322967 3 17 C3.66 17.66 4.32 18.32 5 19 C4 20 4 20 1.75 20.375 C-1 20 -1 20 -3.8125 18.125 C-6.49160562 14.29770626 -6.65899643 11.95917003 -6.43359375 7.3828125 C-5.76402314 3.70319024 -4.11738225 0 0 0 Z M2 7 C2 8.65 2 10.3 2 12 C2.33 12 2.66 12 3 12 C3 10.35 3 8.7 3 7 C2.67 7 2.34 7 2 7 Z " fill="#365DAA" transform="translate(262,103)"/>
<path d="M0 0 C2.39489543 0.74324341 3.70777616 1.47057354 4.93359375 3.69140625 C5.67219923 5.44073501 6.34049685 7.21934149 7 9 C7.99 9 8.98 9 10 9 C10.66 6.03 11.32 3.06 12 0 C13.32 0.33 14.64 0.66 16 1 C16.90095556 9.59244653 16.90095556 9.59244653 14.83984375 12.8125 C12.4946257 14.92379605 10.59775494 15.97084122 7.4375 16.125 C4.00880537 14.54252556 2.28070515 13.0409402 0 10 C-0.74432138 7.00232211 -1.08936339 4.08941995 -1 1 C-0.67 0.67 -0.34 0.34 0 0 Z " fill="#3059A8" transform="translate(364,104)"/>
<path d="M0 0 C3.7368843 0.21152175 6.29597177 0.53064784 9.4375 2.625 C11.5520177 5.83906691 11.28959898 8.23521325 11 12 C10.67 12 10.34 12 10 12 C9.71125 10.865625 9.4225 9.73125 9.125 8.5625 C8.75375 7.386875 8.3825 6.21125 8 5 C7.34 4.67 6.68 4.34 6 4 C6.33 4.53625 6.66 5.0725 7 5.625 C8.22699204 8.5391061 8.14233286 10.86867708 8 14 C7.67 14 7.34 14 7 14 C6.01 11.03 5.02 8.06 4 5 C3.01 5 2.02 5 1 5 C-0.85274014 8.12649899 -1.37198336 10.37316225 -1 14 C0.70892499 17.31460705 0.70892499 17.31460705 4.125 17.6875 C5.07375 17.790625 6.0225 17.89375 7 18 C6.34 18.99 5.68 19.98 5 21 C1.09685718 21.69389206 -0.5404272 21.29972139 -3.875 19.125 C-6.46858747 15.31090078 -6.71325382 12.91026812 -6.50390625 8.37890625 C-5.74500399 4.79618162 -3.85351561 3.15753619 -1 1 C-0.67 0.67 -0.34 0.34 0 0 Z " fill="#345CAA" transform="translate(100,100)"/>
<path d="M0 0 C1.96875 0.1875 1.96875 0.1875 4 1 C5.01129668 3.02259336 5.50238027 5.00876942 6.09375 7.1875 C6.3928125 7.785625 6.691875 8.38375 7 9 C8.32 9.33 9.64 9.66 11 10 C11.33 7.03 11.66 4.06 12 1 C13.32 1 14.64 1 16 1 C16.61593211 9.96523405 16.61593211 9.96523405 14.4375 13.625 C10.96165205 15.58573474 8.92733107 15.68900545 5 15 C1.31646469 11.79692582 -0.17986874 9.5099731 -0.875 4.6875 C-0.91625 3.470625 -0.9575 2.25375 -1 1 C-0.67 0.67 -0.34 0.34 0 0 Z " fill="#2E57A7" transform="translate(158,102)"/>
<path d="M0 0 C5.65625 -0.2890625 5.65625 -0.2890625 8.75 2.3125 C12.09618566 6.30933288 13.52007103 8.67242372 13.3828125 13.99609375 C12.71645562 17.48426801 10.77191929 18.96725919 8 21 C5.1875 21.8125 5.1875 21.8125 3 22 C1.11010621 17.12929813 0.5985553 12.77608662 0.375 7.625 C0.33632813 6.88894531 0.29765625 6.15289062 0.2578125 5.39453125 C0.16442002 3.59672594 0.0811629 1.79839892 0 0 Z M3 3 C3.11371497 5.29225435 3.24130964 7.58382388 3.375 9.875 C3.44460937 11.15117188 3.51421875 12.42734375 3.5859375 13.7421875 C3.67241106 17.08061699 3.67241106 17.08061699 6 19 C8.70301172 16.80380298 9.88415463 15.59209854 10.5625 12.125 C9.7813211 7.78511725 8.10406819 6.10406819 5 3 C4.34 3 3.68 3 3 3 Z " fill="#F7F9FB" transform="translate(21,96)"/>
<path d="M0 0 C3.85567462 -0.44833426 5.52990805 -0.33120115 8.75 1.9375 C11.27924747 5.38008684 11.87230315 7.85390698 12.4453125 12.01171875 C12.87522533 14.38798685 12.87522533 14.38798685 16 16 C15.67 17.32 15.34 18.64 15 20 C1.2122093 18.58817829 1.2122093 18.58817829 -3 15 C-2.67 14.34 -2.34 13.68 -2 13 C-1.34 13.66 -0.68 14.32 0 15 C2.60280568 14.67958603 2.60280568 14.67958603 5 14 C5.08948558 9.52572076 4.85743651 5.39436211 4 1 C2.68 0.67 1.36 0.34 0 0 Z " fill="#2A54A5" transform="translate(307,103)"/>
<path d="M0 0 C1.91562291 2.87343437 2.29210899 3.77503541 2.6328125 7.01171875 C2.71660156 7.76904297 2.80039063 8.52636719 2.88671875 9.30664062 C3.00466797 10.48516602 3.00466797 10.48516602 3.125 11.6875 C3.21136719 12.48478516 3.29773438 13.28207031 3.38671875 14.10351562 C3.59848472 16.06823326 3.80021473 18.03402796 4 20 C2.68 20.33 1.36 20.66 0 21 C-2.77675038 17.07173635 -3.34512366 14.46875108 -3.1875 9.6875 C-3.14689453 8.08455078 -3.14689453 8.08455078 -3.10546875 6.44921875 C-3.05326172 5.23685547 -3.05326172 5.23685547 -3 4 C-3.99 4 -4.98 4 -6 4 C-6 3.34 -6 2.68 -6 2 C-6.99 1.67 -7.98 1.34 -9 1 C-5.95699684 -0.52150158 -3.345915 -0.23899393 0 0 Z " fill="#355CAA" transform="translate(251,102)"/>
<path d="M0 0 C-1 3 -1 3 -3.0625 4.75 C-5.37581372 6.98087896 -5.37581372 6.98087896 -5.25 10.75 C-5.1675 11.8225 -5.085 12.895 -5 14 C-1.41672247 15.00217064 -1.41672247 15.00217064 2 14 C1 17 1 17 -1 19 C-1 19.33 -1 19.66 -1 20 C-4.375 19.6875 -4.375 19.6875 -8 19 C-10.97059325 14.54411013 -10.74719776 10.22275987 -10 5 C-7.14530306 0.84029874 -5.08139243 -0.7259132 0 0 Z " fill="#3C62AD" transform="translate(51,100)"/>
<path d="M0 0 C4.90850275 0.37200267 9.64068786 1.1743017 14.46875 2.11328125 C15.38011719 2.27892578 16.29148437 2.44457031 17.23046875 2.61523438 C22.51423985 3.62547921 27.11538588 4.97409982 31.96875 7.30078125 C31.63875 8.29078125 31.30875 9.28078125 30.96875 10.30078125 C29.78410156 9.85089844 28.59945312 9.40101562 27.37890625 8.9375 C20.87196984 6.7685212 14.18418099 6.00429315 7.40625 5.11328125 C5.46395508 4.84741211 5.46395508 4.84741211 3.48242188 4.57617188 C0.31215806 4.14333143 -2.85895342 3.71841539 -6.03125 3.30078125 C-3.86950533 0.85754263 -3.40368626 0.33773691 0 0 Z " fill="#FCE2E2" transform="translate(84.03125,28.69921875)"/>
<path d="M0 0 C4.56510216 0.72626625 7.2620928 3.55129149 10.01953125 7.046875 C12.9544743 11.56855404 13.3724065 15.10258713 12.75 20.4375 C11.25 22.4375 11.25 22.4375 9.75 23.4375 C10.08 21.7875 10.41 20.1375 10.75 18.4375 C10.09 18.4375 9.43 18.4375 8.75 18.4375 C8.59144531 17.84582031 8.43289062 17.25414063 8.26953125 16.64453125 C6.70958356 11.3613935 5.21633487 7.94676311 0.75 4.4375 C-1.91533035 3.118482 -1.91533035 3.118482 -4.25 2.4375 C-2.25 0.4375 -2.25 0.4375 0 0 Z " fill="#2751A4" transform="translate(26.25,92.5625)"/>
<path d="M0 0 C1.9375 0.375 1.9375 0.375 4 1 C5.11445498 3.22890995 5.16480286 4.53055106 5.1875 7 C5.20167969 7.70125 5.21585938 8.4025 5.23046875 9.125 C5 11 5 11 3 13 C0.06546739 12.63318342 -0.86437246 12.13562754 -3 10 C-2.69903201 5.86169011 -2.32101984 3.48152976 0 0 Z M1 4 C0.67 5.65 0.34 7.3 0 9 C0.66 9 1.32 9 2 9 C2 7.35 2 5.7 2 4 C1.67 4 1.34 4 1 4 Z " fill="#EAEEF6" transform="translate(101,104)"/>
<path d="M0 0 C2.4375 0.375 2.4375 0.375 5 1 C6.50662097 4.01324195 6.17770373 6.68286377 6 10 C5.34 10.66 4.68 11.32 4 12 C-0.55555556 11.44444444 -0.55555556 11.44444444 -2 10 C-2.35897436 3.53846154 -2.35897436 3.53846154 0 0 Z M1 4 C1 5.65 1 7.3 1 9 C1.66 8.67 2.32 8.34 3 8 C2.67 6.68 2.34 5.36 2 4 C1.67 4 1.34 4 1 4 Z " fill="#EBEFF6" transform="translate(307,107)"/>
<path d="M0 0 C3.875 0.875 3.875 0.875 5 2 C5.27314815 7.73611111 5.27314815 7.73611111 5 10 C4.34 10.66 3.68 11.32 3 12 C0.375 11.625 0.375 11.625 -2 11 C-3.35384615 4.6 -3.35384615 4.6 -1.5625 1.5625 C-1.046875 1.046875 -0.53125 0.53125 0 0 Z M1 3 C0.67 4.65 0.34 6.3 0 8 C0.99 8.495 0.99 8.495 2 9 C2 7.02 2 5.04 2 3 C1.67 3 1.34 3 1 3 Z " fill="#EFF2F8" transform="translate(217,106)"/>
<path d="M0 0 C3.91936232 0.96265039 5.35438059 1.5186585 7.5625 4.875 C7.8125 8.625 7.8125 8.625 7.5625 11.875 C7.2325 11.875 6.9025 11.875 6.5625 11.875 C6.27375 10.740625 5.985 9.60625 5.6875 8.4375 C5.31625 7.261875 4.945 6.08625 4.5625 4.875 C3.9025 4.545 3.2425 4.215 2.5625 3.875 C2.8925 4.41125 3.2225 4.9475 3.5625 5.5 C4.78949204 8.4141061 4.70483286 10.74367708 4.5625 13.875 C4.2325 13.875 3.9025 13.875 3.5625 13.875 C2.5725 10.905 1.5825 7.935 0.5625 4.875 C-0.4275 4.875 -1.4175 4.875 -2.4375 4.875 C-3.4275 7.845 -4.4175 10.815 -5.4375 13.875 C-5.7675 13.875 -6.0975 13.875 -6.4375 13.875 C-6.4375 9.875 -6.4375 5.875 -6.4375 1.875 C-3.4375 -0.125 -3.4375 -0.125 0 0 Z " fill="#2651A4" transform="translate(103.4375,100.125)"/>
<path d="M0 0 C3.875 0.875 3.875 0.875 5 2 C5.0979057 3.49738124 5.12974864 4.99942892 5.125 6.5 C5.12757813 7.3146875 5.13015625 8.129375 5.1328125 8.96875 C5 11 5 11 4 12 C1.5 12.125 1.5 12.125 -1 12 C-2.87643761 10.12356239 -2.17984987 7.50194299 -2.23046875 5.0078125 C-2 3 -2 3 0 0 Z M1 4 C1 5.65 1 7.3 1 9 C1.33 9 1.66 9 2 9 C2 7.35 2 5.7 2 4 C1.67 4 1.34 4 1 4 Z " fill="#F4F6FA" transform="translate(263,106)"/>
<path d="M0 0 C1.32 0 2.64 0 4 0 C5.20272819 2.40545638 5.10071472 3.94996953 5.0625 6.625 C5.05347656 7.44226563 5.04445313 8.25953125 5.03515625 9.1015625 C5.02355469 9.72804688 5.01195312 10.35453125 5 11 C2.625 11.625 2.625 11.625 0 12 C-2 10 -2 10 -2.25 6.5625 C-2 3 -2 3 0 0 Z M1 4 C1 5.65 1 7.3 1 9 C1.66 8.67 2.32 8.34 3 8 C2.34 6.68 1.68 5.36 1 4 Z " fill="#F5F6FA" transform="translate(47,104)"/>
<path d="M0 0 C0.99 0 1.98 0 3 0 C4.53266582 3.06533164 4.10276471 6.26754272 4.0625 9.625 C4.05798828 10.33140625 4.05347656 11.0378125 4.04882812 11.765625 C4.03703875 13.51045275 4.01910324 15.255237 4 17 C3.01 17 2.02 17 1 17 C-0.53266582 13.93466836 -0.10276471 10.73245728 -0.0625 7.375 C-0.05798828 6.66859375 -0.05347656 5.9621875 -0.04882812 5.234375 C-0.03703875 3.48954725 -0.01910324 1.744763 0 0 Z " fill="#2751A4" transform="translate(66,103)"/>
<path d="M0 0 C0.99 0 1.98 0 3 0 C3.2475 0.94875 3.495 1.8975 3.75 2.875 C4.6857077 6.08693191 4.6857077 6.08693191 7.125 7.375 C7.74375 7.58125 8.3625 7.7875 9 8 C8.67 9.32 8.34 10.64 8 12 C5.6568787 11.74438677 3.32156597 11.40729228 1 11 C-0.20272819 8.59454362 -0.10071472 7.05003047 -0.0625 4.375 C-0.05347656 3.55773437 -0.04445313 2.74046875 -0.03515625 1.8984375 C-0.02355469 1.27195312 -0.01195312 0.64546875 0 0 Z " fill="#2B54A6" transform="translate(331,107)"/>
<path d="M0 0 C1.76923828 0.04060547 1.76923828 0.04060547 3.57421875 0.08203125 C4.47785156 0.11683594 5.38148438 0.15164062 6.3125 0.1875 C6.3125 0.5175 6.3125 0.8475 6.3125 1.1875 C2.3525 1.1875 -1.6075 1.1875 -5.6875 1.1875 C-6.6775 4.1575 -7.6675 7.1275 -8.6875 10.1875 C-10.3375 10.1875 -11.9875 10.1875 -13.6875 10.1875 C-13.0275 7.2175 -12.3675 4.2475 -11.6875 1.1875 C-11.0275 1.8475 -10.3675 2.5075 -9.6875 3.1875 C-9.15189453 2.45080078 -9.15189453 2.45080078 -8.60546875 1.69921875 C-5.78196905 -0.52622806 -3.53531046 -0.10500922 0 0 Z " fill="#E23135" transform="translate(285.6875,51.8125)"/>
<path d="M0 0 C-0.45038771 4.84166786 -1.59972161 7.49668287 -5 11 C-5.66 11 -6.32 11 -7 11 C-7.36300778 4.70786517 -7.36300778 4.70786517 -5.75 1.5625 C-4 0 -4 0 0 0 Z " fill="#E9EDF5" transform="translate(294,105)"/>
<path d="M0 0 C4.01686987 -0.46707789 5.56501812 -0.32150834 8.875 2.125 C11.32150834 5.43498188 11.46707789 6.98313013 11 11 C10.67 11 10.34 11 10 11 C9.71125 10.030625 9.4225 9.06125 9.125 8.0625 C8.35785318 4.89335797 8.35785318 4.89335797 6 4 C5.67 4.66 5.34 5.32 5 6 C3.68 5.67 2.36 5.34 1 5 C0.01 7.97 -0.98 10.94 -2 14 C-2.33 14 -2.66 14 -3 14 C-3.40652968 8.57960425 -2.03993514 4.92984325 0 0 Z " fill="#244FA3" transform="translate(262,102)"/>
<path d="M0 0 C1 1 1 1 1.0625 4.0625 C1.041875 5.031875 1.02125 6.00125 1 7 C0.01 6.67 -0.98 6.34 -2 6 C-2 9.3 -2 12.6 -2 16 C-2.33 16 -2.66 16 -3 16 C-3 12.04 -3 8.08 -3 4 C-3.99 4 -4.98 4 -6 4 C-6 3.34 -6 2.68 -6 2 C-6.99 1.67 -7.98 1.34 -9 1 C-6.01787087 -0.49106457 -3.28390342 -0.11941467 0 0 Z " fill="#3E64AE" transform="translate(251,102)"/>
<path d="M0 0 C1.45880109 0.14107747 2.91703551 0.28802415 4.375 0.4375 C5.59316406 0.55931641 5.59316406 0.55931641 6.8359375 0.68359375 C9 1 9 1 11 2 C11 3.65 11 5.3 11 7 C5.06 6.01 5.06 6.01 -1 5 C0.32 4.01 1.64 3.02 3 2 C2.01 1.34 1.02 0.68 0 0 Z " fill="#EA3438" transform="translate(339,25)"/>
<path d="M0 0 C1.125 3.75 1.125 3.75 0 6 C1.32 5.67 2.64 5.34 4 5 C3.125 10.875 3.125 10.875 2 12 C0.33382885 12.04063832 -1.33388095 12.042721 -3 12 C-2.68950274 10.56206608 -2.3765224 9.1246682 -2.0625 7.6875 C-1.88847656 6.88699219 -1.71445313 6.08648437 -1.53515625 5.26171875 C-1 3 -1 3 0 0 Z " fill="#E23236" transform="translate(187,50)"/>
<path d="M0 0 C0.66 0 1.32 0 2 0 C3.20568053 4.67201205 3.09382426 9.21496292 3 14 C2.01 14.33 1.02 14.66 0 15 C-1.0024305 9.65370398 -0.84888195 5.37625234 0 0 Z " fill="#2852A5" transform="translate(18,96)"/>
<path d="M0 0 C2.31 0 4.62 0 7 0 C6.67 2.97 6.34 5.94 6 9 C5.67 9 5.34 9 5 9 C4.67 10.65 4.34 12.3 4 14 C3.67 14 3.34 14 3 14 C3 10.37 3 6.74 3 3 C1.68 2.67 0.36 2.34 -1 2 C-0.67 1.34 -0.34 0.68 0 0 Z " fill="#3F65AE" transform="translate(83,102)"/>
<path d="M0 0 C0.66 0 1.32 0 2 0 C2 0.66 2 1.32 2 2 C3.98 2 5.96 2 8 2 C6.68 2.33 5.36 2.66 4 3 C5.25541557 5.51083114 6.50063488 5.87125446 9 7 C8.67 8.32 8.34 9.64 8 11 C7.67 10.01 7.34 9.02 7 8 C4.36 7.67 1.72 7.34 -1 7 C-1.04254356 5.00045254 -1.04080783 2.99958364 -1 1 C-0.67 0.67 -0.34 0.34 0 0 Z " fill="#4267B0" transform="translate(142,104)"/>
<path d="M0 0 C0.99 0.33 1.98 0.66 3 1 C4.1875 4.0625 4.1875 4.0625 5 7 C7.31 7.33 9.62 7.66 12 8 C12.33 8.99 12.66 9.98 13 11 C11.58194169 10.71517632 10.16559621 10.42181856 8.75 10.125 C7.96109375 9.96257812 7.1721875 9.80015625 6.359375 9.6328125 C4.03168856 9.00849925 2.10968048 8.15161458 0 7 C0 4.69 0 2.38 0 0 Z " fill="#2A53A5" transform="translate(331,92)"/>
<path d="M0 0 C1.25 2.0625 1.25 2.0625 2 4 C-1.82914766 5.4727491 -4.28901101 4.50018704 -8 3 C-8.99 2.34 -9.98 1.68 -11 1 C-3.07076664 -1.59224937 -3.07076664 -1.59224937 0 0 Z " fill="#375EAB" transform="translate(205,92)"/>
<path d="M0 0 C3 1 3 1 4 3 C4.46829268 10.37560976 4.46829268 10.37560976 2.5 13 C2.005 13.33 1.51 13.66 1 14 C1.33 12.35 1.66 10.7 2 9 C1.34 9 0.68 9 0 9 C0 6.03 0 3.06 0 0 Z " fill="#315AA9" transform="translate(35,102)"/>
<path d="M0 0 C0.33 0 0.66 0 1 0 C1.0825 0.94875 1.165 1.8975 1.25 2.875 C1.65074923 6.10461791 1.65074923 6.10461791 4.0625 7.375 C4.701875 7.58125 5.34125 7.7875 6 8 C5.67 8.33 5.34 8.66 5 9 C5.66 9.66 6.32 10.32 7 11 C6 12 6 12 3.625 12.375 C1 12 1 12 -0.8125 9.625 C-2 7 -2 7 -2 5 C-1.34 5 -0.68 5 0 5 C0 3.35 0 1.7 0 0 Z " fill="#486CB2" transform="translate(260,111)"/>
<path d="M0 0 C1.3921875 0.3403125 1.3921875 0.3403125 2.8125 0.6875 C2.8125 1.6775 2.8125 2.6675 2.8125 3.6875 C1.4925 3.3575 0.1725 3.0275 -1.1875 2.6875 C-1.8371875 3.925 -1.8371875 3.925 -2.5 5.1875 C-3.056875 6.0125 -3.61375 6.8375 -4.1875 7.6875 C-5.1775 7.6875 -6.1675 7.6875 -7.1875 7.6875 C-6.83051497 5.04581079 -6.435192 3.07859264 -5 0.8125 C-3.1875 -0.3125 -3.1875 -0.3125 0 0 Z " fill="#375FAB" transform="translate(308.1875,103.3125)"/>
<path d="M0 0 C0.33 0.99 0.66 1.98 1 3 C1.66 3 2.32 3 3 3 C2.6875 5.375 2.6875 5.375 2 8 C1.01 8.66 0.02 9.32 -1 10 C-1 9.01 -1 8.02 -1 7 C-1.99 7.99 -2.98 8.98 -4 10 C-4.66 9.67 -5.32 9.34 -6 9 C-4.02 6.03 -2.04 3.06 0 0 Z " fill="#2650A4" transform="translate(295,106)"/>
<path d="M0 0 C1.32 0.33 2.64 0.66 4 1 C4 4.63 4 8.26 4 12 C3.67 12 3.34 12 3 12 C2.67 9.69 2.34 7.38 2 5 C1.67 7.97 1.34 10.94 1 14 C0.67 14 0.34 14 0 14 C0 9.38 0 4.76 0 0 Z " fill="#1F4BA1" transform="translate(235,91)"/>
<path d="M0 0 C2.0625 1.625 2.0625 1.625 4 4 C3.75 7.25 3.75 7.25 3 10 C2.01 9.34 1.02 8.68 0 8 C-0.99 9.32 -1.98 10.64 -3 12 C-2.68950274 10.56206608 -2.3765224 9.1246682 -2.0625 7.6875 C-1.88847656 6.88699219 -1.71445312 6.08648437 -1.53515625 5.26171875 C-1 3 -1 3 0 0 Z " fill="#EB3237" transform="translate(280,35)"/>
<path d="M0 0 C0.33 0.66 0.66 1.32 1 2 C1.66 2 2.32 2 3 2 C2.96744792 3.98567708 2.93489583 5.97135417 2.90234375 7.95703125 C2.91736783 10.20305461 2.91736783 10.20305461 4 13 C3.34 13 2.68 13 2 13 C-0.40385693 8.79325038 -1.45226612 5.86186074 -1 1 C-0.67 0.67 -0.34 0.34 0 0 Z " fill="#234EA3" transform="translate(212,105)"/>
<path d="M0 0 C1.98 0.495 1.98 0.495 4 1 C4 4.3 4 7.6 4 11 C3.01 9.68 2.02 8.36 1 7 C0.01 7.495 0.01 7.495 -1 8 C-1.125 2.25 -1.125 2.25 0 0 Z " fill="#4B6EB3" transform="translate(376,104)"/>
<path d="M0 0 C2.97851562 0.390625 2.97851562 0.390625 5.95703125 0.78125 C8.15471706 1.053233 8.15471706 1.053233 11 1 C8.28817788 3.60334924 7.10866187 3.99456691 3.25 4.1875 C2.1775 4.125625 1.105 4.06375 0 4 C0 2.68 0 1.36 0 0 Z " fill="#2651A4" transform="translate(283,116)"/>
<path d="M0 0 C0.9075 0.185625 1.815 0.37125 2.75 0.5625 C5.74790974 0.96606477 7.19162994 0.80239145 10 0 C10.66 0.33 11.32 0.66 12 1 C11.67 1.66 11.34 2.32 11 3 C8.27734375 3.4140625 8.27734375 3.4140625 4.9375 3.625 C3.83277344 3.69976562 2.72804687 3.77453125 1.58984375 3.8515625 C0.73519531 3.90054688 -0.11945313 3.94953125 -1 4 C-0.67 2.68 -0.34 1.36 0 0 Z " fill="#2A54A5" transform="translate(216,118)"/>
<path d="M0 0 C2.0625 0.4375 2.0625 0.4375 4 1 C4 2.65 4 4.3 4 6 C3.01 6.495 3.01 6.495 2 7 C1.67 5.68 1.34 4.36 1 3 C0.67 5.97 0.34 8.94 0 12 C-0.33 12 -0.66 12 -1 12 C-1.02687279 10.18757948 -1.04633715 8.37504767 -1.0625 6.5625 C-1.07410156 5.55316406 -1.08570312 4.54382813 -1.09765625 3.50390625 C-1 1 -1 1 0 0 Z " fill="#5777B8" transform="translate(73,89)"/>
<path d="M0 0 C0.99 0.33 1.98 0.66 3 1 C2.38125 1.556875 1.7625 2.11375 1.125 2.6875 C-1.06106379 5.06645178 -1.98785699 6.96357096 -3 10 C-3.66 10 -4.32 10 -5 10 C-5.33 10.99 -5.66 11.98 -6 13 C-6 10.69 -6 8.38 -6 6 C-5.01 6 -4.02 6 -3 6 C-2.690625 5.195625 -2.38125 4.39125 -2.0625 3.5625 C-1 1 -1 1 0 0 Z " fill="#1E4AA1" transform="translate(307,105)"/>
<path d="M0 0 C-1.38081223 4.1424367 -3.59825558 5.32203099 -7 8 C-6.34 6.35 -5.68 4.7 -5 3 C-6.32 3.99 -7.64 4.98 -9 6 C-8.6875 4.125 -8.6875 4.125 -8 2 C-4.77208445 -0.1519437 -3.71599191 -0.20086443 0 0 Z " fill="#214DA2" transform="translate(51,100)"/>
<path d="M0 0 C5.37305699 -0.35233161 5.37305699 -0.35233161 8 0 C10 2 10 2 11 4 C7.78548731 5.60725635 4.56387464 5.05748185 1 5 C2.32 4.34 3.64 3.68 5 3 C2.525 2.01 2.525 2.01 0 1 C0 0.67 0 0.34 0 0 Z " fill="#EB3236" transform="translate(368,57)"/>
<path d="M0 0 C0.33 0 0.66 0 1 0 C1 3.96 1 7.92 1 12 C-0.32 12.33 -1.64 12.66 -3 13 C-3 12.34 -3 11.68 -3 11 C-2.34 11 -1.68 11 -1 11 C-1.020625 9.741875 -1.04125 8.48375 -1.0625 7.1875 C-1.10886083 4.35948913 -0.91692961 2.75078884 0 0 Z " fill="#2D56A7" transform="translate(78,108)"/>
<path d="M0 0 C1.32 0.33 2.64 0.66 4 1 C4 1.66 4 2.32 4 3 C4.66 3.33 5.32 3.66 6 4 C6 4.66 6 5.32 6 6 C4.02 6 2.04 6 0 6 C0 4.02 0 2.04 0 0 Z " fill="#EA2A2E" transform="translate(330,55)"/>
<path d="M0 0 C0 0.99 0 1.98 0 3 C-0.66 3.66 -1.32 4.32 -2 5 C-2 5.33 -2 5.66 -2 6 C-3.65 6 -5.3 6 -7 6 C-7.33 5.34 -7.66 4.68 -8 4 C-7.67 3.34 -7.34 2.68 -7 2 C-4.6859378 1.26924352 -2.35171131 0.59861742 0 0 Z " fill="#2550A3" transform="translate(52,114)"/>
<path d="M0 0 C0.33 0 0.66 0 1 0 C1 2.97 1 5.94 1 9 C0.01 9.33 -0.98 9.66 -2 10 C-2 11.98 -2 13.96 -2 16 C-2.33 16 -2.66 16 -3 16 C-3 13.36 -3 10.72 -3 8 C-2.34 7.67 -1.68 7.34 -1 7 C-0.59270772 4.67843403 -0.25561323 2.3431213 0 0 Z " fill="#5C7CBB" transform="translate(21,103)"/>
<path d="M0 0 C1.23556641 0.01740234 1.23556641 0.01740234 2.49609375 0.03515625 C3.32238281 0.04417969 4.14867187 0.05320312 5 0.0625 C5.63808594 0.07410156 6.27617187 0.08570312 6.93359375 0.09765625 C6.93359375 0.42765625 6.93359375 0.75765625 6.93359375 1.09765625 C5.28359375 1.42765625 3.63359375 1.75765625 1.93359375 2.09765625 C3.25359375 2.42765625 4.57359375 2.75765625 5.93359375 3.09765625 C3.62359375 3.42765625 1.31359375 3.75765625 -1.06640625 4.09765625 C-1.06640625 3.43765625 -1.06640625 2.77765625 -1.06640625 2.09765625 C-1.72640625 1.76765625 -2.38640625 1.43765625 -3.06640625 1.09765625 C-2.06640625 0.09765625 -2.06640625 0.09765625 0 0 Z " fill="#1F4BA1" transform="translate(194.06640625,90.90234375)"/>
<path d="M0 0 C1.29539465 2.13359119 2.03274515 3.47607754 1.875 6 C0.73959163 8.59521914 -0.91485678 10.11664483 -3 12 C-2.68950274 10.56206608 -2.3765224 9.1246682 -2.0625 7.6875 C-1.88847656 6.88699219 -1.71445313 6.08648437 -1.53515625 5.26171875 C-1 3 -1 3 0 0 Z " fill="#EB4145" transform="translate(191,38)"/>
<path d="M0 0 C3.125 0.375 3.125 0.375 6 1 C3.82575883 3.50037734 2.26954202 4.43628586 -1 5 C-1.33 4.01 -1.66 3.02 -2 2 C-1.34 1.34 -0.68 0.68 0 0 Z " fill="#E82025" transform="translate(337,25)"/>
<path d="M0 0 C0 0.66 0 1.32 0 2 C0.66 2 1.32 2 2 2 C2 2.66 2 3.32 2 4 C-0.375 4.625 -0.375 4.625 -3 5 C-3.66 4.34 -4.32 3.68 -5 3 C-2.25 0 -2.25 0 0 0 Z " fill="#E92024" transform="translate(345,57)"/>
<path d="M0 0 C2 2 2 2 2.125 4.625 C2.08375 5.40875 2.0425 6.1925 2 7 C1.67 6.01 1.34 5.02 1 4 C0.01 4.99 -0.98 5.98 -2 7 C-2.99 6.67 -3.98 6.34 -5 6 C-4.67 5.34 -4.34 4.68 -4 4 C-3.34 4 -2.68 4 -2 4 C-2 3.34 -2 2.68 -2 2 C-1.34 2 -0.68 2 0 2 C0 1.34 0 0.68 0 0 Z " fill="#EA3035" transform="translate(381,50)"/>
<path d="M0 0 C1.485 0.99 1.485 0.99 3 2 C3.1875 4.625 3.1875 4.625 3 7 C2.34 7 1.68 7 1 7 C0.67 7.66 0.34 8.32 0 9 C0 6.03 0 3.06 0 0 Z " fill="#1E4BA1" transform="translate(41,107)"/>
<path d="M0 0 C1.051875 -0.02126953 1.051875 -0.02126953 2.125 -0.04296875 C4 0.1875 4 0.1875 6 2.1875 C4.906875 2.166875 3.81375 2.14625 2.6875 2.125 C-0.94384191 2.00205548 -0.94384191 2.00205548 -4 3.1875 C-4.66 2.5275 -5.32 1.8675 -6 1.1875 C-3.77109005 0.07304502 -2.46944894 0.02269714 0 0 Z " fill="#2E57A7" transform="translate(54,116.8125)"/>
<path d="M0 0 C0.33 0 0.66 0 1 0 C1 2.97 1 5.94 1 9 C-0.32 8.67 -1.64 8.34 -3 8 C-3 7.34 -3 6.68 -3 6 C-2.34 6 -1.68 6 -1 6 C-0.67 4.02 -0.34 2.04 0 0 Z " fill="#365DAA" transform="translate(91,112)"/>
<path d="M0 0 C1.32 0 2.64 0 4 0 C4.33 0.99 4.66 1.98 5 3 C4.01 3.99 3.02 4.98 2 6 C0 3 0 3 0 0 Z " fill="#365DAA" transform="translate(189,93)"/>
<path d="M0 0 C2.31 0.33 4.62 0.66 7 1 C6.67 1.99 6.34 2.98 6 4 C3.36 3.67 0.72 3.34 -2 3 C-1.34 2.67 -0.68 2.34 0 2 C0 1.34 0 0.68 0 0 Z " fill="#FAD4D3" transform="translate(102,32)"/>
<path d="M0 0 C3.125 -0.1875 3.125 -0.1875 6 0 C5.67 0.99 5.34 1.98 5 3 C2.69 3 0.38 3 -2 3 C-1.34 2.01 -0.68 1.02 0 0 Z " fill="#1D4AA0" transform="translate(215,102)"/>
</svg>
